<svg width="24" height="24" viewBox="0 0 24 24" fill="none" xmlns="http://www.w3.org/2000/svg">
<path fill-rule="evenodd" clip-rule="evenodd" d="M22.7771 9.78514C22.6329 9.07852 22.4162 8.38258 22.1358 7.71779C21.8603 7.06501 21.5186 6.4367 21.1216 5.84934C20.7278 5.26686 20.2761 4.71954 19.7786 4.22251C19.2816 3.72458 18.7338 3.27249 18.1517 2.87957C17.5643 2.48132 16.9351 2.14092 16.2831 1.86459C15.6183 1.5847 14.9228 1.36755 14.2157 1.22427C13.4916 1.07565 12.7458 1 12.0009 1C11.2551 1 10.5101 1.07565 9.78523 1.22427C9.07856 1.36755 8.38258 1.58514 7.71819 1.86459C7.06626 2.14092 6.43703 2.48177 5.84874 2.87957C5.26623 3.27249 4.71888 3.72414 4.22181 4.22251C3.7243 4.71954 3.27307 5.26731 2.87969 5.84934C2.4823 6.4367 2.14098 7.06501 1.86553 7.71779C1.58384 8.38258 1.36802 9.07852 1.22339 9.78514C1.07521 10.5082 1 11.254 1 11.9993C1 12.746 1.07521 13.4918 1.22339 14.2153C1.36802 14.9219 1.58429 15.6179 1.86508 16.2822C2.14054 16.9341 2.4823 17.5642 2.87924 18.1516C3.27262 18.734 3.72386 19.2805 4.22137 19.7784C4.71844 20.2754 5.26623 20.7266 5.84829 21.1204C6.43659 21.5178 7.06582 21.8591 7.71775 22.1345C8.38169 22.4162 9.07812 22.6307 9.78478 22.7757C10.5097 22.9252 11.2546 23 12.0004 23C12.7454 23 13.4912 22.9252 14.2152 22.7757C14.9228 22.6307 15.6179 22.4157 16.2827 22.1345C16.9346 21.8591 17.5639 21.5173 18.1513 21.1204C18.7338 20.7266 19.2811 20.2759 19.7782 19.7784C20.2753 19.2805 20.7274 18.7336 21.1212 18.1516C21.5186 17.5642 21.8599 16.9341 22.1354 16.2822C22.4162 15.6183 22.6324 14.9219 22.7766 14.2153C22.9252 13.4913 23 12.7456 23 11.9993C23.0004 11.254 22.9257 10.5082 22.7771 9.78514ZM21.3913 11.9063C21.2556 11.877 18.0765 11.1926 14.8485 11.5984C14.7826 11.4378 14.7154 11.2758 14.646 11.1134C14.4506 10.6537 14.2401 10.1981 14.0212 9.75088C17.7316 8.23707 19.238 6.05892 19.2553 6.03311C20.573 7.63235 21.37 9.67656 21.3913 11.9063ZM18.2051 4.9496C18.1815 4.98608 16.8438 7.02229 13.2981 8.35143C11.6921 5.4008 9.92763 3.05712 9.78656 2.87112C10.4968 2.69891 11.2373 2.60591 12.0004 2.60591C14.3794 2.60591 16.5497 3.4923 18.2051 4.9496ZM9.75007 2.87868C9.75007 2.87957 9.74829 2.88046 9.74829 2.88046C9.74829 2.88046 9.73806 2.88313 9.7207 2.88669C9.73005 2.88402 9.74072 2.88224 9.75007 2.87868ZM7.99187 3.50343C8.11691 3.67118 9.85465 6.02644 11.4807 8.9161C6.9697 10.1144 3.05502 10.0677 2.80671 10.0632C3.41725 7.15356 5.37214 4.7409 7.99187 3.50343ZM2.60601 11.9993C2.60601 11.8992 2.61046 11.8013 2.61402 11.7025C2.77956 11.7061 7.42182 11.8116 12.2585 10.364C12.5278 10.8909 12.7854 11.4262 13.0208 11.9611C12.8967 11.9958 12.773 12.0332 12.6506 12.0732C7.58069 13.7116 5.00902 18.2735 5.00902 18.2735C5.00902 18.2735 5.01258 18.2761 5.01258 18.2779C3.51693 16.6133 2.60601 14.4129 2.60601 11.9993ZM12.0004 21.3941C9.72693 21.3941 7.64165 20.586 6.0165 19.2413C6.13977 19.3414 6.22699 19.4055 6.22699 19.4055C6.22699 19.4055 8.02791 15.4781 13.5989 13.5372C13.6198 13.5292 13.6407 13.5234 13.6616 13.5171C14.9837 16.9519 15.5293 19.8287 15.6686 20.6496C14.541 21.1293 13.3016 21.3941 12.0004 21.3941ZM17.2501 19.7917C17.1545 19.2244 16.6538 16.4673 15.4216 13.0815C18.4539 12.5965 21.0825 13.4281 21.2761 13.4918C20.8578 16.1091 19.3594 18.3669 17.2501 19.7917Z" fill="white"/>
</svg>
