<svg width="24" height="24" viewBox="0 0 24 24" fill="none" xmlns="http://www.w3.org/2000/svg">
<path fill-rule="evenodd" clip-rule="evenodd" d="M19.5 22C20.876 22 22 20.875 22 19.5V4.5C22 3.125 20.876 2 19.5 2H4.5C3.127 2 2 3.125 2 4.5V19.5C2.00185 20.1625 2.26583 20.7973 2.73427 21.2657C3.20271 21.7342 3.83753 21.9982 4.5 22H19.5ZM13.0028 14.125V21.5838H15.6399V14.125H18.2666L18.699 11.4647H15.6399V9.43688C15.6399 8.59929 15.8637 8.00417 17.0571 8.00417H18.8247V5.22309L18.8145 5.22175C18.5393 5.18574 17.6896 5.07454 16.6514 5.07454C14.4561 5.07454 13.0037 6.53409 13.0037 9.01042V11.4638H10.3561V14.125H13.0028Z" fill="white"/>
</svg>
