<svg width="24" height="24" viewBox="0 0 24 24" fill="none" xmlns="http://www.w3.org/2000/svg">
<path d="M12 1C5.9247 1 1 5.81977 1 11.7673C1 16.5262 4.1526 20.5573 8.5229 21.9823C9.0729 22.081 9.2742 21.7481 9.2742 21.4625C9.2742 21.2042 9.2632 20.529 9.2588 19.6291C6.2008 20.2801 5.5518 18.1853 5.5518 18.1853C5.0513 16.943 4.3286 16.6102 4.3286 16.6102C3.332 15.9402 4.4023 15.9539 4.4023 15.9539C5.5078 16.0295 6.0875 17.0659 6.0875 17.0659C7.0687 18.7113 8.6604 18.2378 9.2885 17.9616C9.3875 17.2686 9.6713 16.7897 9.9859 16.523C7.545 16.25 4.9776 15.326 4.9776 11.2013C4.9776 10.0253 5.4044 9.06445 6.1062 8.31366C5.994 8.04169 5.6156 6.94543 6.2151 5.4638C6.2151 5.4638 7.138 5.17293 9.2401 6.56636C10.1368 6.3269 11.0634 6.20503 11.9945 6.20409C12.9259 6.2054 13.8528 6.3269 14.75 6.56531C16.851 5.17293 17.7695 5.4638 17.7695 5.4638C18.369 6.94438 17.9906 8.04169 17.8773 8.31366C18.5802 9.06865 19.007 10.0295 19.007 11.2013C19.007 15.3365 16.433 16.2458 13.9833 16.5125C14.376 16.8454 14.7302 17.5017 14.7302 18.5055C14.7302 19.9441 14.7148 21.1065 14.7148 21.4583C14.7148 21.7439 14.9117 22.082 15.4716 21.9739C19.8518 20.5542 23 16.522 23 11.7684C23 5.81977 18.0742 1 12 1Z" fill="white"/>
</svg>
