<svg width="80" height="63" viewBox="0 0 80 63" xmlns="http://www.w3.org/2000/svg"><title>ic_deliver</title><g fill="none" fill-rule="evenodd"><path fill="#FEE9E8" d="M20 18.5l18-10L24 8zm39 0l-18-10L55 8z"/><path d="M10.365 18.226L23.2 8.6A3 3 0 0 1 25 8h30a3 3 0 0 1 1.8.6l12.835 9.626a3 3 0 0 1 .626 4.165L42.426 60.664a3 3 0 0 1-4.852 0L9.739 22.391a3 3 0 0 1 .626-4.165z" stroke="#F52B22" stroke-width="2" fill="#FEE9E8"/><path fill="#FFF" d="M20 20l20 42 20-42z"/><path d="M24.72 8h30.56a1 1 0 0 1 .948.684L60 20 40.905 60.577a1 1 0 0 1-1.81 0L20 20l3.772-11.316A1 1 0 0 1 24.721 8z" stroke="#F52B22" stroke-width="2"/><path d="M9 20h61.191m-48.335-1.873l17.657-9.855a1 1 0 0 1 .974 0l17.657 9.855A1 1 0 0 1 57.656 20H22.344a1 1 0 0 1-.488-1.873z" stroke="#F52B22" stroke-width="2" fill="#FFF"/><path d="M19.828 3.828L17 1m34.828 2.828L49 1M3.828 15.828L1 13m77.828 13.828L76 24M1 26.828L3.828 24M76 15.828L78.828 13M28 3.828L30.828 1M60 3.828L62.828 1" stroke="#FEE9E8" stroke-width="2" fill="#FFF" stroke-linecap="round"/></g></svg>