<?xml version="1.0" encoding="UTF-8"?>
<svg width="80px" height="63px" viewBox="0 0 80 63" version="1.1" xmlns="http://www.w3.org/2000/svg" xmlns:xlink="http://www.w3.org/1999/xlink">
    <!-- Generator: Sketch 46.2 (44496) - http://www.bohemiancoding.com/sketch -->
    <title>ic_deliver</title>
    <desc>Created with Sketch.</desc>
    <defs></defs>
    <g id="visual" stroke="none" stroke-width="1" fill="none" fill-rule="evenodd">
        <g id="Home" transform="translate(-1070.000000, -2020.000000)">
            <g id="ic_deliver" transform="translate(1050.000000, 1992.000000)">
                <polygon id="Path-22" fill="#FEE9E8" fill-rule="evenodd" points="40 46.5 58 36.5 44 36"></polygon>
                <polygon id="Path-22" fill="#FEE9E8" fill-rule="evenodd" transform="translate(70.000000, 41.250000) scale(-1, 1) translate(-70.000000, -41.250000) " points="61 46.5 79 36.5 65 36"></polygon>
                <path d="M30.3649654,46.226276 L43.2,36.6 L43.2,36.6 C43.7192885,36.2105336 44.3508894,36 45,36 L75,36 L75,36 C75.6491106,36 76.2807115,36.2105336 76.8,36.6 L89.6350346,46.226276 L89.6350346,46.226276 C90.9467567,47.2100675 91.2256401,49.0647448 90.2612429,50.3907911 L62.4262083,88.6639637 L62.4262083,88.6639637 C61.4516935,90.0039215 59.5754427,90.3001716 58.2354849,89.3256568 C57.9816668,89.1410618 57.7583867,88.9177818 57.5737917,88.6639637 L29.7387571,50.3907911 L29.7387571,50.3907911 C28.7743599,49.0647448 29.0532433,47.2100675 30.3649654,46.226276 Z" id="Rectangle-2-Copy-2" stroke="#F52B22" stroke-width="2" fill="#FEE9E8" fill-rule="evenodd"></path>
                <polygon id="Path-23" fill="#FFFFFF" fill-rule="evenodd" points="40 48 60 90 80 48"></polygon>
                <path d="M44.7207592,36 L75.2792408,36 L75.2792408,36 C75.7096712,36 76.09181,36.2754301 76.2279241,36.6837722 L80,48 L60.9048187,88.5772603 L60.9048187,88.5772603 C60.6696575,89.0769778 60.0739205,89.2914431 59.574203,89.0562819 C59.3636603,88.957203 59.1942602,88.7878029 59.0951813,88.5772603 L40,48 L43.7720759,36.6837722 L43.7720759,36.6837722 C43.90819,36.2754301 44.2903288,36 44.7207592,36 Z" id="Rectangle-2-Copy-2" stroke="#F52B22" stroke-width="2"></path>
                <path d="M29,48 L90.1910868,48" id="Path-6" stroke="#F52B22" stroke-width="2" fill="#FFFFFF" fill-rule="evenodd"></path>
                <path d="M41.8561459,46.1268023 L59.5126338,36.2720183 L59.5126338,36.2720183 C59.8155504,36.1029486 60.1844496,36.1029486 60.4873662,36.2720183 L78.1438541,46.1268023 L78.1438541,46.1268023 C78.6261079,46.3959672 78.7988506,47.0051124 78.5296857,47.4873662 C78.3530344,47.8038663 78.0189489,48 77.656488,48 L42.343512,48 L42.343512,48 C41.7912273,48 41.343512,47.5522847 41.343512,47 C41.343512,46.637539 41.5396458,46.3034535 41.8561459,46.1268023 Z" id="Path-7" stroke="#F52B22" stroke-width="2" fill="#FFFFFF" fill-rule="evenodd"></path>
                <path d="M39.8284271,31.8284271 L37,29" id="Path-9" stroke="#FEE9E8" stroke-width="2" fill="#FFFFFF" fill-rule="evenodd" stroke-linecap="round"></path>
                <path d="M71.8284271,31.8284271 L69,29" id="Path-9-Copy-5" stroke="#FEE9E8" stroke-width="2" fill="#FFFFFF" fill-rule="evenodd" stroke-linecap="round"></path>
                <path d="M23.8284271,43.8284271 L21,41" id="Path-9-Copy" stroke="#FEE9E8" stroke-width="2" fill="#FFFFFF" fill-rule="evenodd" stroke-linecap="round"></path>
                <path d="M98.8284271,54.8284271 L96,52" id="Path-9-Copy-3" stroke="#FEE9E8" stroke-width="2" fill="#FFFFFF" fill-rule="evenodd" stroke-linecap="round"></path>
                <path d="M23.8284271,54.8284271 L21,52" id="Path-9-Copy" stroke="#FEE9E8" stroke-width="2" fill="#FFFFFF" fill-rule="evenodd" stroke-linecap="round" transform="translate(22.414214, 53.414214) scale(-1, 1) translate(-22.414214, -53.414214) "></path>
                <path d="M98.8284271,43.8284271 L96,41" id="Path-9-Copy-4" stroke="#FEE9E8" stroke-width="2" fill="#FFFFFF" fill-rule="evenodd" stroke-linecap="round" transform="translate(97.414214, 42.414214) scale(-1, 1) translate(-97.414214, -42.414214) "></path>
                <path d="M50.8284271,31.8284271 L48,29" id="Path-9-Copy-2" stroke="#FEE9E8" stroke-width="2" fill="#FFFFFF" fill-rule="evenodd" stroke-linecap="round" transform="translate(49.414214, 30.414214) scale(-1, 1) translate(-49.414214, -30.414214) "></path>
                <path d="M82.8284271,31.8284271 L80,29" id="Path-9-Copy-6" stroke="#FEE9E8" stroke-width="2" fill="#FFFFFF" fill-rule="evenodd" stroke-linecap="round" transform="translate(81.414214, 30.414214) scale(-1, 1) translate(-81.414214, -30.414214) "></path>
            </g>
        </g>
    </g>
</svg>