<?xml version="1.0" encoding="UTF-8"?>
<svg width="81px" height="77px" viewBox="0 0 81 77" version="1.1" xmlns="http://www.w3.org/2000/svg" xmlns:xlink="http://www.w3.org/1999/xlink">
    <!-- Generator: Sketch 46.2 (44496) - http://www.bohemiancoding.com/sketch -->
    <title>ic_define</title>
    <desc>Created with Sketch.</desc>
    <defs></defs>
    <g id="visual" stroke="none" stroke-width="1" fill="none" fill-rule="evenodd">
        <g id="Home" transform="translate(-289.000000, -2012.000000)">
            <g id="ic_define" transform="translate(270.000000, 1992.000000)">
                <path d="M33.1788725,23.6070425 L38.3079002,21.8973666 L38.3079002,21.8973666 C39.8797302,21.3734233 41.5786901,22.2229032 42.1026334,23.7947332 C42.3079002,24.4105336 42.3079002,25.0762994 42.1026334,25.6920998 L40.1539501,31.5381497 L40.1539501,31.5381497 C40.0519836,31.8440491 40,32.1643867 40,32.486833 L40,40.1576708 L40,40.1576708 C40,41.814525 38.6568542,43.1576708 37,43.1576708 C36.7547146,43.1576708 36.5103549,43.1275887 36.2723931,43.0680983 L27.6281856,40.9070464 L27.6281856,40.9070464 C26.0208009,40.5052002 25.0435188,38.8763968 25.445365,37.269012 C25.4984529,37.0566604 25.5746217,36.8507566 25.6725109,36.6549781 L31.4442742,25.1114516 L31.4442742,25.1114516 C31.8000995,24.3998011 32.4240531,23.858649 33.1788725,23.6070425 Z" id="Rectangle-2" fill="#FEE9E8"></path>
                <path d="M69.4257309,74.8594153 L75.903267,69.6773864 L75.903267,69.6773864 C77.0969403,68.7224478 78.8177554,68.8177554 79.8986725,69.8986725 L90.3797443,80.3797443 L90.3797443,80.3797443 C91.336356,81.336356 91.5343566,82.814876 90.8631534,83.9894815 L84.8637618,94.4884168 L84.8637618,94.4884168 C84.3296333,95.4231418 83.3356029,96 82.2590324,96 L74.4594117,96 L74.4594117,96 C73.0293686,96 71.7981242,94.990621 71.5176697,93.5883484 L68.358074,77.7903701 L68.358074,77.7903701 C68.1381244,76.6906221 68.5499652,75.5600278 69.4257309,74.8594153 Z" id="Rectangle-2-Copy" fill-opacity="0.1" fill="#F52B22"></path>
                <path d="M24.6422841,75.3577159 L31.1213203,68.8786797 L31.1213203,68.8786797 C31.6839295,68.3160705 32.4469912,68 33.2426407,68 L47.450383,68 L47.450383,68 C49.1072372,68 50.450383,69.3431458 50.450383,71 C50.450383,71.4062803 50.3678597,71.8083274 50.207818,72.1817579 L40.7792466,94.1817579 L40.7792466,94.1817579 C40.3065102,95.2848094 39.2218959,96 38.0218115,96 L23.6594117,96 L23.6594117,96 C22.0025575,96 20.6594117,94.6568542 20.6594117,93 C20.6594117,92.802444 20.6789258,92.6053711 20.7176697,92.4116516 L23.8218624,76.8906878 L23.8218624,76.8906878 C23.9380171,76.3099144 24.2234825,75.7765175 24.6422841,75.3577159 Z" id="Rectangle-2-Copy-2" stroke="#F52B22" stroke-width="2" fill="#FEE9E8"></path>
                <path d="M65.4230249,35.5256584 L75.0234982,32.3255006 L75.0234982,32.3255006 C75.656391,32.1145363 76.20091,31.698635 76.5709658,31.1435513 L81.9701236,23.0448146 L81.9701236,23.0448146 C82.889181,21.6662285 84.751789,21.2937069 86.1303751,22.2127643 C86.2947516,22.3223486 86.4479017,22.4479017 86.5875948,22.5875948 L98.1601886,34.1601886 L98.1601886,34.1601886 C99.2158645,35.2158645 99.334639,36.8871481 98.4388683,38.081509 L89.0657939,50.5789415 L89.0657939,50.5789415 C88.4085505,51.455266 87.3259261,51.9037037 86.2415298,51.74879 L63.5585102,48.5083586 L63.5585102,48.5083586 C61.9183082,48.274044 60.7786112,46.7544481 61.0129258,45.1142461 C61.0383781,44.9360801 61.0798114,44.7605659 61.1367244,44.5898268 L63.5256584,37.4230249 L63.5256584,37.4230249 C63.8242633,36.52721 64.52721,35.8242633 65.4230249,35.5256584 Z" id="Rectangle-2-Copy-3" stroke="#F52B22" stroke-width="2" fill="#FEE9E8"></path>
            </g>
        </g>
    </g>
</svg>