<svg width="65" height="55" viewBox="0 0 65 55" xmlns="http://www.w3.org/2000/svg"><title>ic_design_consulting</title><g transform="translate(-24 -32)" fill="none" fill-rule="evenodd"><path d="M27 32h34a3 3 0 0 1 3 3v26a3 3 0 0 1-3 3H40.828a2 2 0 0 0-1.414.586l-4.586 4.586A1.657 1.657 0 0 1 32 68v-2a2 2 0 0 0-2-2h-3a3 3 0 0 1-3-3V35a3 3 0 0 1 3-3z" fill="#FEE9E8"/><circle fill="#FFF" cx="38" cy="42" r="2"/><circle fill="#FFF" cx="50" cy="42" r="2"/><path d="M36 52c2.667 2.667 5.333 4 8 4s5.333-1.333 8-4" stroke="#FFF" stroke-width="2" stroke-linecap="round" stroke-linejoin="round"/><path d="M51 48h34a3 3 0 0 1 3 3v26a3 3 0 0 1-3 3h-3a2 2 0 0 0-2 2v2a1.657 1.657 0 0 1-2.828 1.172l-4.586-4.586A2 2 0 0 0 71.172 80H51a3 3 0 0 1-3-3V51a3 3 0 0 1 3-3z" stroke="#F52B22" stroke-width="2" fill="#FFF"/><path d="M60 68c2.667 2.667 5.333 4 8 4s5.333-1.333 8-4m-12-8c-1.333-1.333-2.667-2-4-2-1.333 0-2.667.667-4 2m24 0c-1.333-1.333-2.667-2-4-2-1.333 0-2.667.667-4 2" stroke="#F52B22" stroke-width="2" stroke-linecap="round" stroke-linejoin="round"/></g></svg>