<svg width="81" height="77" viewBox="0 0 81 77" xmlns="http://www.w3.org/2000/svg"><title>ic_define</title><g fill="none" fill-rule="evenodd"><path d="M14.179 3.607l5.129-1.71a3 3 0 0 1 3.795 3.795l-1.949 5.846a3 3 0 0 0-.154.949v7.67a3 3 0 0 1-3.728 2.911l-8.644-2.161a3 3 0 0 1-1.955-4.252l5.771-11.544a3 3 0 0 1 1.735-1.504z" fill="#FEE9E8"/><path d="M50.426 54.86l6.477-5.183a3 3 0 0 1 3.996.222l10.48 10.48a3 3 0 0 1 .484 3.61l-6 10.5A3 3 0 0 1 63.26 76h-7.8a3 3 0 0 1-2.941-2.412l-3.16-15.798a3 3 0 0 1 1.068-2.93z" fill-opacity=".1" fill="#F52B22"/><path d="M5.642 55.358l6.48-6.48a3 3 0 0 1 2.12-.878H28.45a3 3 0 0 1 2.758 4.182l-9.429 22A3 3 0 0 1 19.022 76H4.659a3 3 0 0 1-2.941-3.588L4.822 56.89a3 3 0 0 1 .82-1.533zm40.781-39.832l9.6-3.2a3 3 0 0 0 1.548-1.182l5.4-8.1a3 3 0 0 1 4.617-.456L79.16 14.16a3 3 0 0 1 .279 3.922l-9.373 12.497a3 3 0 0 1-2.824 1.17l-22.683-3.24a3 3 0 0 1-2.422-3.92l2.389-7.166a3 3 0 0 1 1.897-1.897z" stroke="#F52B22" stroke-width="2" fill="#FEE9E8"/></g></svg>