<svg width="29" height="46" viewBox="0 0 29 46" xmlns="http://www.w3.org/2000/svg"><title>ic_investment</title><g transform="translate(-16 -7)" stroke-width="2" fill="none" fill-rule="evenodd"><path d="M30 52V28" stroke="#F52B22" fill="#FFF" stroke-linecap="round"/><path d="M30 44l-8-8m8 13.485L38.485 41" stroke="#F52B22" fill="#FFF"/><path d="M36.828 42.314c3.797 3.797 8.221-3.093 5.657-5.657s-9.454 1.86-5.657 5.657zm-12.585-4.421c-3.797 3.797-8.564-3.436-6-6s9.797 2.203 6 6z" stroke="#F52B22" fill="#FEE9E8"/><circle stroke="#F52B22" fill="#F52B22" cx="30" cy="18" r="10"/><path d="M28 22c2.667.735 4 .069 4-2 0-3.103-4-1.052-4-4 0-1.965 1.333-2.632 4-2" stroke="#FEE9E8" stroke-linecap="round"/><path d="M30 13v-1m0 12v-1" stroke="#FEE9E8" stroke-linecap="round" stroke-linejoin="round"/><path d="M20 52h20" stroke="#F52B22" fill="#FFF" stroke-linecap="round"/></g></svg>