<svg width="69" height="62" viewBox="0 0 69 62" xmlns="http://www.w3.org/2000/svg"><title>ic_mobile_app_design</title><g transform="translate(-25 -27)" fill="none" fill-rule="evenodd"><path d="M28.74 65.791l14.81-3.968a7.733 7.733 0 0 0-4.871-4.398l.782-2.887a.552.552 0 0 0-.392-.678.56.56 0 0 0-.684.393l-.797 2.939a7.671 7.671 0 0 0-3.174.154 7.69 7.69 0 0 0-2.77 1.404l-2.13-2.12a.56.56 0 0 0-.79.001.551.551 0 0 0-.001.784l2.084 2.073a7.74 7.74 0 0 0-2.066 6.303zm9.615-7.28a.79.79 0 0 1 .971.555.79.79 0 0 1-.563.967.79.79 0 0 1-.97-.556.79.79 0 0 1 .562-.967zm-6.705 1.796a.79.79 0 0 1 .97.556.79.79 0 0 1-.562.967.79.79 0 0 1-.97-.556.79.79 0 0 1 .562-.967zm-2.74 6.588l15.095-4.045 3.158 11.784a2.226 2.226 0 0 1-1.583 2.72l-1.078.29 1.005 3.75c.238.887-.293 1.8-1.187 2.04a1.67 1.67 0 0 1-2.048-1.174l-1.005-3.75-3.234.867 1.005 3.75a1.67 1.67 0 0 1-1.187 2.04 1.67 1.67 0 0 1-2.048-1.174l-1.005-3.75a2.226 2.226 0 0 1-2.73-1.564L28.91 66.895zm-.647 1.895l1.722 6.428a1.67 1.67 0 0 1-1.187 2.04 1.669 1.669 0 0 1-2.048-1.174l-1.722-6.427a1.669 1.669 0 0 1 1.187-2.04 1.67 1.67 0 0 1 2.048 1.173zm20.486-5.489l1.722 6.428c.238.887-.293 1.8-1.187 2.04a1.67 1.67 0 0 1-2.048-1.174l-1.722-6.427a1.67 1.67 0 0 1 1.187-2.04c.893-.24 1.81.286 2.048 1.173zm40.596 7.374c-1.134 4.396 2.281 6.876 2.319 6.905-.06.095-1.166 1.917-3.11 3.585-1.68 1.441-3.406 2.864-5.39 2.371-1.95-.484-2.256-1.837-4.474-2.432-2.218-.594-3.21.335-5.066-.085-1.925-.439-2.846-2.809-3.592-4.894-1.525-4.264-1.666-11.343 2.075-15.092 1.859-1.862 4.5-2.649 6.97-2.025 1.88.465 3.3 2.234 4.444 2.54 1.144.307 3.708-.675 5.904.158.934.293 3.494 1.346 4.53 4.295-.16.048-3.66 1-4.61 4.674m-.76-11.745c1.34-.954 2.477-2.477 2.746-4.223-1.474-.332-3.483.108-4.857 1.052-1.228.833-2.514 2.348-2.738 4.07 1.592.562 3.508.055 4.848-.9" fill="#FEE9E8" fill-rule="nonzero"/><rect stroke="#F52B22" stroke-width="2" fill="#FFF" x="40" y="28" width="40" height="60" rx="3"/><rect fill="#FEE9E8" x="48" y="36" width="24" height="12" rx="2"/><rect fill="#FEE9E8" x="48" y="52" width="24" height="12" rx="2"/><circle fill="#F52B22" cx="60" cy="78" r="4"/></g></svg>