<?xml version="1.0" encoding="UTF-8"?>
<svg width="69px" height="62px" viewBox="0 0 69 62" version="1.1" xmlns="http://www.w3.org/2000/svg" xmlns:xlink="http://www.w3.org/1999/xlink">
    <!-- Generator: Sketch 46.2 (44496) - http://www.bohemiancoding.com/sketch -->
    <title>ic_mobile_app_design</title>
    <desc>Created with Sketch.</desc>
    <defs></defs>
    <g id="visual" stroke="none" stroke-width="1" fill="none" fill-rule="evenodd">
        <g id="Home" transform="translate(-685.000000, -1197.000000)">
            <g id="ic_mobile_app_design" transform="translate(660.000000, 1170.000000)">
                <path d="M30.0505926,63.5932968 L45.3813751,63.5932968 C45.066448,61.2705938 43.7199546,59.2780321 41.8153925,58.0846808 L43.3181708,55.4981934 C43.4723844,55.2332661 43.3811705,54.8944106 43.1146004,54.7413399 C42.8474589,54.5882692 42.5059605,54.6784117 42.352247,54.9444104 L40.8217544,57.5766118 C39.8699734,57.157471 38.8275499,56.9044722 37.7161267,56.9044722 C36.6319177,56.9044722 35.6117084,57.1443996 34.6779272,57.5440406 L33.168006,54.9444104 C33.0137925,54.6784117 32.6722941,54.5882692 32.405724,54.7413399 C32.138011,54.894482 32.0468686,55.2332661 32.2010107,55.4981934 L33.6777892,58.040181 C31.7395844,59.2281038 30.3697339,61.2445225 30.0505926,63.5932968 Z M41.2218953,59.0489618 C41.6606075,59.0489618 42.0156772,59.4018172 42.0156772,59.8373151 C42.0156772,60.272813 41.6605361,60.6256684 41.2218953,60.6256684 C40.7832546,60.6256684 40.4281849,60.272813 40.4281849,59.8373151 C40.4281849,59.4018172 40.7831832,59.0489618 41.2218953,59.0489618 Z M34.2805006,59.0489618 C34.7186413,59.0489618 35.073711,59.4018172 35.073711,59.8373151 C35.073711,60.272813 34.7185699,60.6256684 34.2805006,60.6256684 C33.8417884,60.6256684 33.4867902,60.272813 33.4867902,59.8373151 C33.4867902,59.4018172 33.8418599,59.0489618 34.2805006,59.0489618 Z M29.9288789,64.7030771 L45.5560885,64.7030771 L45.5560885,76.9028034 C45.5560885,78.1276546 44.5565934,79.1212212 43.323028,79.1212212 L42.2072477,79.1212212 L42.2072477,83.0032737 C42.2072477,83.9218407 41.4580371,84.666837 40.5328987,84.666837 C39.6083318,84.666837 38.8585497,83.9218407 38.8585497,83.0032737 L38.8585497,79.1212212 L35.5097089,79.1212212 L35.5097089,83.0032737 C35.5097089,83.9218407 34.7604982,84.666837 33.8353599,84.666837 C32.9107215,84.666837 32.1609395,83.9218407 32.1609395,83.0032737 L32.1609395,79.1212212 C30.9285169,79.1212212 29.9289504,78.127726 29.9289504,76.9028034 L29.9289504,64.7030771 L29.9288789,64.7030771 Z M28.8125986,66.366569 L28.8125986,73.0208223 C28.8125986,73.9394607 28.0628166,74.6843856 27.1382497,74.6843856 C26.2131113,74.6843856 25.4639007,73.9394607 25.4639007,73.0208223 L25.4639007,66.366569 C25.4639007,65.4479306 26.2131113,64.7030057 27.1382497,64.7030057 C28.0628166,64.7030771 28.8125986,65.4479306 28.8125986,66.366569 Z M50.0212096,66.366569 L50.0212096,73.0208223 C50.0212096,73.9394607 49.271999,74.6843856 48.3467892,74.6843856 C47.4222223,74.6843856 46.6724402,73.9394607 46.6724402,73.0208223 L46.6724402,66.366569 C46.6724402,65.4479306 47.4222223,64.7030057 48.3467892,64.7030057 C49.271999,64.7030771 50.0212096,65.4479306 50.0212096,66.366569 Z" id="Shape" fill="#FEE9E8" fill-rule="nonzero" transform="translate(37.742555, 69.666837) rotate(-15.000000) translate(-37.742555, -69.666837) "></path>
                <path d="M89.8671833,68.5880903 C89.9093414,73.1280921 93.8499163,74.6388726 93.8935743,74.6581035 C93.860255,74.7645968 93.2639351,76.8110581 91.8174899,78.9249081 C90.5670502,80.7524902 89.2693635,82.5732692 87.2250449,82.6109811 C85.2162956,82.6479967 84.5703717,81.4198413 82.273801,81.4198413 C79.9779268,81.4198413 79.2602752,82.5733228 77.3587692,82.6480502 C75.3854819,82.7227777 73.8827901,80.6718702 72.6220654,78.8509841 C70.0458158,75.1263956 68.0770282,68.3261959 70.7206129,63.7359473 C72.0338879,61.4564113 74.3808125,60.0129123 76.9281889,59.9758968 C78.865907,59.9389348 80.6948284,61.2795295 81.8794328,61.2795295 C83.0632874,61.2795295 85.2858269,59.6673446 87.6223594,59.9041155 C88.6005125,59.9448273 91.3462515,60.2992337 93.1092841,62.8799294 C92.9672215,62.9679953 89.833114,64.7925241 89.8671833,68.5880903 M86.091973,57.4399839 C87.1396039,56.1718668 87.8447205,54.4065308 87.6523575,52.6500335 C86.1422734,52.7107261 84.3162447,53.6563099 83.2330982,54.9237306 C82.262391,56.046089 81.4122656,57.8424945 81.6416441,59.5642261 C83.3248067,59.6944501 85.0442885,58.7089046 86.091973,57.4399839" id="Shape" fill="#FEE9E8" fill-rule="nonzero" transform="translate(81.679844, 67.650034) rotate(15.000000) translate(-81.679844, -67.650034) "></path>
                <rect id="Rectangle" stroke="#F52B22" stroke-width="2" fill="#FFFFFF" fill-rule="evenodd" x="40" y="28" width="40" height="60" rx="3"></rect>
                <rect id="Rectangle-2-Copy-5" fill="#FEE9E8" fill-rule="evenodd" x="48" y="36" width="24" height="12" rx="2"></rect>
                <rect id="Rectangle-2-Copy-6" fill="#FEE9E8" fill-rule="evenodd" x="48" y="52" width="24" height="12" rx="2"></rect>
                <circle id="Oval-2" fill="#F52B22" fill-rule="evenodd" cx="60" cy="78" r="4"></circle>
            </g>
        </g>
    </g>
</svg>