<?xml version="1.0" encoding="UTF-8"?>
<svg width="90px" height="85px" viewBox="0 0 90 85" version="1.1" xmlns="http://www.w3.org/2000/svg" xmlns:xlink="http://www.w3.org/1999/xlink">
    <!-- Generator: Sketch 46.2 (44496) - http://www.bohemiancoding.com/sketch -->
    <title>ic_prototype</title>
    <desc>Created with Sketch.</desc>
    <defs></defs>
    <g id="visual" stroke="none" stroke-width="1" fill="none" fill-rule="evenodd">
        <g id="ic_prototype" transform="translate(0.000000, 1.000000)" fill-rule="nonzero">
            <path d="M3.388,-8.8817842e-16 L16.226,-8.8817842e-16 C17.8828542,-8.8817842e-16 19.226,1.34314575 19.226,3 L19.226,11.292 C19.2258131,11.7575412 19.1172838,12.216651 18.909,12.633 L16.745,16.96 C16.3602552,17.7296161 15.6635784,18.2969866 14.8320025,18.5179367 C14.0004266,18.7388868 13.1140098,18.592145 12.398,18.115 L4.082,12.57 C3.52697962,12.2000717 3.11106857,11.6557279 2.9,11.023 L0.542,3.95 C0.236529446,3.03499975 0.389685246,2.02892788 0.953592148,1.24627424 C1.51749905,0.463620601 2.42335618,-0.000125195787 3.388,-8.8817842e-16 Z M77.603,59.542 L86.176,57.092 C87.0813714,56.8333778 88.0556393,57.0148269 88.807206,57.5820396 C89.5587727,58.1492523 90.0004336,59.0364149 90,59.978 L90,67.385 C89.9998953,67.7913919 89.9172231,68.1935258 89.757,68.567 L85.421,78.686 C85.0698527,79.5052906 84.3725613,80.1260026 83.5181159,80.3799015 C82.6636706,80.6338005 81.7405677,80.4945897 80.999,80 L73.822,75.216 C72.7368115,74.492245 72.2436542,73.1502104 72.602,71.896 L75.542,61.604 C75.8267947,60.6076338 76.6056338,59.8287947 77.602,59.544 L77.603,59.542 Z" id="Shape" fill="#FEE9E8"></path>
            <g id="Group" transform="translate(24.000000, 0.000000)" stroke="#F52B22" stroke-width="2">
                <path d="M21.994,0.6 C23.0606667,-0.2 24.5273333,-0.2 25.594,0.6 L39.794,11.25 L47.54,30.838 C47.8341151,31.5818481 47.8189954,32.4123502 47.498,33.145 L26.565,80.925 C26.0853566,82.0191425 25.0022483,82.7244204 23.8075975,82.7205127 C22.6129468,82.7166051 21.5344754,82.0042569 21.062,80.907 L0.478,33.11 C0.171430455,32.3979101 0.152436454,31.5947865 0.425,30.869 L7.485,12.069 C7.68669038,11.5338944 8.03711901,11.0675814 8.495,10.725 L21.994,0.6 Z" id="Shape" fill="#FEE9E8"></path>
                <path d="M8.43,29.82 L22.963,11.381 C23.1531913,11.1400536 23.4435078,10.9998077 23.7504724,11.0005883 C24.0574371,11.0013689 24.3470366,11.1430895 24.536,11.385 L38.936,29.825 C39.3921968,30.4086813 39.4883926,31.1967175 39.186,31.873 L24.66,64.35 C24.4991486,64.7092114 24.1425505,64.9406644 23.7489701,64.9413117 C23.3553897,64.9419591 22.9980321,64.7116803 22.836,64.353 L8.177,31.883 C7.86987423,31.2027934 7.96703353,30.4081691 8.429,29.822 L8.43,29.82 Z M9,31 L39.5,31 L9,31 Z" id="Shape" fill="#FFFFFF"></path>
            </g>
        </g>
    </g>
</svg>