<?xml version="1.0" encoding="UTF-8"?>
<svg width="90px" height="85px" viewBox="0 0 90 85" version="1.1" xmlns="http://www.w3.org/2000/svg" xmlns:xlink="http://www.w3.org/1999/xlink">
    <!-- Generator: Sketch 46.2 (44496) - http://www.bohemiancoding.com/sketch -->
    <title>ic_prototype</title>
    <desc>Created with Sketch.</desc>
    <defs></defs>
    <g id="visual" stroke="none" stroke-width="1" fill="none" fill-rule="evenodd">
        <g id="Home" transform="translate(-672.000000, -2011.000000)">
            <g id="ic_prototype-3" transform="translate(660.000000, 1992.000000)">
                <path d="M15.3879685,20 L28.2256908,20 L28.2256908,20 C29.8825451,20 31.2256908,21.3431458 31.2256908,23 L31.2256908,31.2917961 L31.2256908,31.2917961 C31.2256908,31.7575314 31.1172556,32.2168706 30.9089724,32.6334369 L28.7454777,36.9604263 L28.7454777,36.9604263 C28.0045099,38.4423618 26.2024908,39.0430349 24.7205553,38.3020671 C24.609293,38.246436 24.5015985,38.1839384 24.3980955,38.1149364 L16.0821395,32.5709658 L16.0821395,32.5709658 C15.5270558,32.20091 15.1111545,31.656391 14.9001902,31.0234982 L12.5419186,23.9486833 L12.5419186,23.9486833 C12.0179753,22.3768533 12.8674552,20.6778934 14.4392852,20.1539501 C14.7451846,20.0519836 15.0655222,20 15.3879685,20 Z" id="Rectangle-2" fill="#FEE9E8"></path>
                <path d="M89.6025399,79.5421315 L98.1758366,77.0926181 L98.1758366,77.0926181 C99.7689417,76.6374452 101.429399,77.5599215 101.884572,79.1530266 C101.96115,79.421051 102,79.6984404 102,79.97719 L102,87.3842269 L102,87.3842269 C102,87.7905072 101.917477,88.1925542 101.757435,88.5659848 L97.4206945,98.6850462 L97.4206945,98.6850462 C96.7680276,100.207936 95.0043908,100.91339 93.4815015,100.260723 C93.3130784,100.188542 93.1516227,100.101082 92.9991588,99.9994392 L85.8220713,95.2147142 L85.8220713,95.2147142 C84.7365723,94.4910482 84.2431968,93.1488111 84.6016,91.8943999 L87.5421315,81.6025399 L87.5421315,81.6025399 C87.826881,80.6059164 88.6059164,79.826881 89.6025399,79.5421315 Z" id="Rectangle-2-Copy" fill="#FEE9E8"></path>
                <g id="Group" stroke-width="1" transform="translate(36.000000, 20.000000)" stroke="#F52B22">
                    <path d="M8.49436454,10.7246049 L21.9938377,0.6 L21.9938377,0.6 C23.0605044,-0.2 24.527171,-0.2 25.5938377,0.6 L39.7938377,11.25 L47.5403287,30.837681 L47.5403287,30.837681 C47.8345199,31.5815691 47.8194311,32.4121443 47.4984149,33.1448562 L26.5653199,80.9241567 L26.5653199,80.9241567 C25.9004311,82.4417499 24.1311799,83.1330033 22.6135868,82.4681145 C21.91731,82.1630613 21.3628008,81.6050598 21.0621249,80.9068815 L0.478050062,33.1100465 L0.478050062,33.1100465 C0.171327829,32.3978283 0.152305436,31.5945081 0.424972543,30.8685702 L7.48593753,12.069741 L7.48593753,12.069741 C7.68700914,11.5344161 8.0368914,11.0677097 8.49436454,10.7246049 Z" id="Rectangle-3" stroke-width="2" fill="#FEE9E8"></path>
                    <path d="M8.42924817,29.8206365 L22.9625521,11.3810345 L22.9625521,11.3810345 C23.3044203,10.9472781 23.9331882,10.872788 24.3669446,11.2146562 C24.4299413,11.2643075 24.4867354,11.3213579 24.5361025,11.3845775 L38.9365568,29.82584 L38.9365568,29.82584 C39.3923598,30.4095425 39.4883025,31.1973356 39.1859193,31.8733751 L24.6602321,64.348527 L24.6602321,64.348527 C24.4347323,64.8526781 23.8432334,65.0785695 23.3390824,64.8530697 C23.115672,64.7531413 22.936664,64.5747532 22.8359613,64.3516907 L8.1771698,31.8815851 L8.1771698,31.8815851 C7.87008701,31.2013782 7.96727591,30.4067789 8.42924817,29.8206365 Z" id="Rectangle-2-Copy-2" stroke-width="2" fill="#FFFFFF"></path>
                    <path d="M9,31 L39.5,31" id="Path-5" stroke-width="2" fill="#FFFFFF"></path>
                </g>
            </g>
        </g>
    </g>
</svg>