<svg width="90" height="85" viewBox="0 0 90 85" xmlns="http://www.w3.org/2000/svg"><title>ic_prototype</title><g fill="none" fill-rule="evenodd"><path d="M3.388 1h12.838a3 3 0 0 1 3 3v8.292a3 3 0 0 1-.317 1.341l-2.164 4.327a3 3 0 0 1-4.347 1.155L4.082 13.57A3 3 0 0 1 2.9 12.023L.542 4.95A3 3 0 0 1 3.388 1zm74.215 59.542l8.573-2.45A3 3 0 0 1 90 60.978v7.407a3 3 0 0 1-.243 1.182l-4.336 10.119A3 3 0 0 1 80.999 81l-7.177-4.784a3 3 0 0 1-1.22-3.32l2.94-10.292a3 3 0 0 1 2.06-2.06z" fill="#FEE9E8"/><g stroke="#F52B22" stroke-width="2"><path d="M32.494 11.725L45.994 1.6a3 3 0 0 1 3.6 0l14.2 10.65 7.746 19.588a3 3 0 0 1-.042 2.307l-20.933 47.78a3 3 0 0 1-5.503-.018L24.478 34.11a3 3 0 0 1-.053-2.241l7.06-18.8a3 3 0 0 1 1.01-1.344z" fill="#FEE9E8"/><path d="M32.43 30.82l14.533-18.439a1 1 0 0 1 1.573.004l14.4 18.44a2 2 0 0 1 .25 2.048L48.66 65.35a1 1 0 0 1-1.824.003l-14.659-32.47a2 2 0 0 1 .252-2.061zM33 32h30.5" fill="#FFF"/></g></g></svg>