<svg width="90" height="62" viewBox="0 0 90 62" xmlns="http://www.w3.org/2000/svg"><title>ic_responsive_web_design</title><g transform="translate(-15 -27)" fill="none" fill-rule="evenodd"><rect stroke="#F52B22" stroke-width="2" fill="#FFF" x="16" y="28" width="76" height="52" rx="3"/><rect fill="#FEE9E8" x="40" y="48" width="8" height="8" rx="1"/><rect fill="#FEE9E8" x="24" y="48" width="8" height="8" rx="1"/><rect fill="#FEE9E8" x="56" y="48" width="8" height="8" rx="1"/><rect fill="#FEE9E8" x="40" y="64" width="8" height="8" rx="1"/><rect fill="#FEE9E8" x="24" y="64" width="8" height="8" rx="1"/><rect fill="#FEE9E8" x="56" y="64" width="8" height="8" rx="1"/><path d="M16 39.5h76.301" stroke="#F52B22" stroke-width="2" fill="#FFF"/><circle fill="#F52B22" cx="22" cy="34" r="2"/><circle fill="#F52B22" cx="30" cy="34" r="2"/><circle fill="#F52B22" cx="38" cy="34" r="2"/><rect stroke="#F52B22" stroke-width="2" fill="#FFF" x="72" y="36" width="32" height="52" rx="3"/><rect fill="#FEE9E8" x="80" y="44" width="16" height="8" rx="1"/><rect fill="#FEE9E8" x="80" y="56" width="16" height="8" rx="1"/><rect fill="#FEE9E8" x="80" y="68" width="16" height="8" rx="1"/><circle fill="#F52B22" cx="88" cy="82" r="2"/></g></svg>