<svg width="46" height="54" viewBox="0 0 46 54" xmlns="http://www.w3.org/2000/svg"><title>ic_simple_solutions</title><g transform="translate(-7 -2)" stroke-width="2" fill="none" fill-rule="evenodd"><path d="M32 49h13a3 3 0 0 0 3-3v-9" stroke="#F52B22"/><path d="M33.5 49H15a3 3 0 0 1-3-3v-5" stroke="#F52B22"/><circle stroke="#F52B22" fill="#FEE9E8" cx="48" cy="37" r="4"/><circle stroke="#F52B22" fill="#FEE9E8" cx="12" cy="41" r="4"/><path d="M30 55V31" stroke="#F52B22" stroke-linecap="round" stroke-linejoin="round"/><path d="M30 37c1.892 0 10-8 10-14s-4.477-10-10-10-10 4-10 10 8.108 14 10 14z" stroke="#F52B22" fill="#F52B22"/><path d="M28 18.732c1.66-.582 3.22-.45 4.68.393 1.462.844 2.355 2.13 2.681 3.857" stroke="#FEE9E8" stroke-linecap="round" stroke-linejoin="round"/><path d="M25 33h10v3a5 5 0 0 1-10 0v-3z" stroke="#F52B22" fill="#F52B22"/><path d="M22 34h16" stroke="#FFF"/><path d="M44 12.828L46.828 10M30 7V3m-14.172 9.828L13 10" stroke="#FEE9E8" fill="#FFF" stroke-linecap="round"/></g></svg>