<svg width="24" height="24" viewBox="0 0 24 24" fill="none" xmlns="http://www.w3.org/2000/svg">
<path d="M12.0002 6.27832C8.89534 6.27832 6.32275 8.80655 6.32275 11.9557C6.32275 15.1049 8.85098 17.6332 12.0002 17.6332C15.1494 17.6332 17.6776 15.0606 17.6776 11.9557C17.6776 8.8509 15.105 6.27832 12.0002 6.27832ZM12.0002 15.5928C10.0042 15.5928 8.36308 13.9517 8.36308 11.9557C8.36308 9.95978 10.0042 8.31864 12.0002 8.31864C13.9962 8.31864 15.6373 9.95978 15.6373 11.9557C15.6373 13.9517 13.9962 15.5928 12.0002 15.5928Z" fill="white"/>
<path d="M17.8991 7.43196C18.6095 7.43196 19.1854 6.85607 19.1854 6.14567C19.1854 5.43527 18.6095 4.85938 17.8991 4.85938C17.1887 4.85938 16.6128 5.43527 16.6128 6.14567C16.6128 6.85607 17.1887 7.43196 17.8991 7.43196Z" fill="white"/>
<path d="M21.2258 2.81855C20.0726 1.62097 18.4315 1 16.5686 1H7.43146C3.57258 1 1 3.57258 1 7.43146V16.5242C1 18.4315 1.62097 20.0726 2.86291 21.2702C4.06049 22.4234 5.65726 23 7.47581 23H16.5242C18.4315 23 20.0282 22.3791 21.1815 21.2702C22.3791 20.117 23 18.4758 23 16.5686V7.43146C23 5.56855 22.3791 3.97178 21.2258 2.81855ZM21.0484 16.5686C21.0484 17.9436 20.5605 19.0524 19.7621 19.8065C18.9637 20.5605 17.8549 20.9597 16.5242 20.9597H7.47581C6.14517 20.9597 5.0363 20.5605 4.23791 19.8065C3.43952 19.0081 3.04033 17.8992 3.04033 16.5242V7.43146C3.04033 6.10081 3.43952 4.99194 4.23791 4.19355C4.99194 3.43952 6.14517 3.04032 7.47581 3.04032H16.6129C17.9436 3.04032 19.0524 3.43952 19.8508 4.23791C20.6049 5.0363 21.0484 6.14517 21.0484 7.43146V16.5686Z" fill="white"/>
</svg>
