<svg width="24" height="24" viewBox="0 0 24 24" fill="none" xmlns="http://www.w3.org/2000/svg">
<path d="M12.7299 11.473V11.4404C12.7231 11.4514 12.7159 11.4624 12.7087 11.473H12.7299Z" fill="white"/>
<path d="M20.8554 1.97559H3.02459C2.17115 1.97559 1.479 2.65122 1.479 3.48392V21.5234C1.479 22.3557 2.17115 23.0313 3.02459 23.0313H20.8554C21.7101 23.0313 22.4022 22.3552 22.4022 21.5234V3.48392C22.4022 2.6508 21.7097 1.97559 20.8554 1.97559ZM7.82095 19.6019H4.66077V10.0943H7.82095V19.6019ZM6.24107 8.79548H6.21991C5.15988 8.79548 4.47408 8.06523 4.47408 7.15294C4.47408 6.22034 5.18105 5.51041 6.26182 5.51041C7.34301 5.51041 8.00806 6.22034 8.02923 7.15294C8.02923 8.06523 7.34259 8.79548 6.24107 8.79548ZM19.2166 19.6019H16.0565V14.5143C16.0565 13.2367 15.5993 12.3646 14.4558 12.3646C13.5829 12.3646 13.0631 12.9526 12.8341 13.5207C12.7507 13.7235 12.7303 14.0071 12.7303 14.2916V19.6015H9.57016C9.57016 19.6015 9.61165 10.985 9.57016 10.0938H12.7303V11.4396C13.1503 10.7919 13.9013 9.86947 15.5789 9.86947C17.6579 9.86947 19.2171 11.2288 19.2171 14.1494V19.6019H19.2166Z" fill="white"/>
</svg>
