<svg width="24" height="24" viewBox="0 0 24 24" fill="none" xmlns="http://www.w3.org/2000/svg">
<path d="M22.1131 6.3477H21.3185C21.0295 6.3477 20.5961 6.78112 20.5961 7.03395V16.9665C20.5961 17.2555 21.0295 17.6167 21.3185 17.6167H22.1131V19.9644H14.8533V17.6167H16.3702V7.17843H16.298L12.7584 20.0005H10.0134L6.50989 7.17843H6.43765V17.6167H7.95463V19.9644H1.88672V17.6167H2.68133C3.00639 17.6167 3.4037 17.2555 3.4037 16.9665V7.03395C3.4037 6.74501 2.97027 6.3477 2.68133 6.3477H1.88672V4H9.47161L11.9638 13.2825H12.036L14.5643 4H22.1131V6.3477Z" fill="white"/>
</svg>
