<?xml version="1.0" encoding="UTF-8"?>
<svg width="20px" height="13px" viewBox="0 0 20 13" version="1.1" xmlns="http://www.w3.org/2000/svg" xmlns:xlink="http://www.w3.org/1999/xlink">
    <!-- Generator: Sketch 46.2 (44496) - http://www.bohemiancoding.com/sketch -->
    <title>ic_behance</title>
    <desc>Created with Sketch.</desc>
    <defs></defs>
    <g id="Symbols" stroke="none" stroke-width="1" fill="none" fill-rule="evenodd">
        <g id="Footer-3" transform="translate(-768.000000, -22.000000)" fill-rule="nonzero" fill="#343439">
            <g id="ic_behance" transform="translate(768.182547, 22.000000)">
                <path d="M8.06117647,5.87254902 C8.06117647,5.87254902 9.90470588,5.73529412 9.90470588,3.57333333 C9.90470588,1.41098039 8.39647059,0.355294118 6.4854902,0.355294118 L2.96784314,0.355294118 L2.86470588,0.355294118 L0.197254902,0.355294118 L0.197254902,12.4396078 L2.86470588,12.4396078 L2.96784314,12.4396078 L6.4854902,12.4396078 C6.4854902,12.4396078 10.3239216,12.5607843 10.3239216,8.87254902 C10.3235294,8.87254902 10.4913725,5.87254902 8.06117647,5.87254902 Z M2.96784314,2.50313725 L6.03254902,2.50313725 L6.48509804,2.50313725 C6.48509804,2.50313725 7.34,2.50313725 7.34,3.76 C7.34,5.01764706 6.83686275,5.2 6.26705882,5.2 L2.96745098,5.2 L2.96745098,2.50313725 L2.96784314,2.50313725 Z M6.30745098,10.2917647 C6.2145098,10.2941176 6.13568627,10.2917647 6.0827451,10.2917647 L2.96784314,10.2917647 L2.96784314,7.0627451 L6.4854902,7.0627451 C6.4854902,7.0627451 7.75960784,7.04588235 7.75960784,8.72156863 C7.75921569,10.1356863 6.80784314,10.2811765 6.30745098,10.2917647 Z" id="Shape"></path>
                <path d="M15.4439216,3.42980392 C10.7968627,3.42980392 10.8007843,8.07294118 10.8007843,8.07294118 C10.8007843,8.07294118 10.4823529,12.6921569 15.4439216,12.6921569 C15.4439216,12.6921569 19.5792157,12.9282353 19.5792157,9.47843137 L17.4521569,9.47843137 C17.4521569,9.47843137 17.5227451,10.7780392 15.5145098,10.7780392 C15.5145098,10.7780392 13.3882353,10.9196078 13.3882353,8.67490196 L19.6498039,8.67490196 C19.6494118,8.67490196 20.334902,3.42980392 15.4439216,3.42980392 Z M13.3643137,7.0627451 C13.3643137,7.0627451 13.6239216,5.2 15.4905882,5.2 C17.3580392,5.2 17.3333333,7.0627451 17.3333333,7.0627451 L13.3643137,7.0627451 Z" id="Shape"></path>
                <rect id="Rectangle-path" x="12.8443137" y="1.06705882" width="4.98470588" height="1.48823529"></rect>
            </g>
        </g>
    </g>
</svg>