<svg width="20" height="13" viewBox="0 0 20 13" xmlns="http://www.w3.org/2000/svg"><title>ic_behance</title><path d="M8.244 5.873s1.843-.138 1.843-2.3S8.58.355 6.668.355H.38V12.44h6.288s3.838.12 3.838-3.567c0 0 .168-3-2.262-3zM3.15 2.503h3.518s.855 0 .855 1.257c0 1.258-.504 1.44-1.073 1.44h-3.3V2.503zm3.34 7.789c-.093.002-.172 0-.225 0H3.15v-3.23h3.518s1.274-.016 1.274 1.66c0 1.414-.952 1.56-1.452 1.57zm9.136-6.862c-4.647 0-4.643 4.643-4.643 4.643s-.318 4.62 4.643 4.62c0 0 4.136.235 4.136-3.215h-2.127s.07 1.3-1.938 1.3c0 0-2.126.142-2.126-2.103h6.261s.685-5.245-4.206-5.245zm-2.08 3.633s.26-1.863 2.127-1.863c1.868 0 1.843 1.863 1.843 1.863h-3.97zm-.519-5.996h4.985v1.488h-4.985z" fill="#343439"/></svg>