<?xml version="1.0" encoding="UTF-8"?>
<svg width="20px" height="20px" viewBox="0 0 20 20" version="1.1" xmlns="http://www.w3.org/2000/svg" xmlns:xlink="http://www.w3.org/1999/xlink">
    <!-- Generator: Sketch 46.2 (44496) - http://www.bohemiancoding.com/sketch -->
    <title>ic_dribbble</title>
    <desc>Created with Sketch.</desc>
    <defs></defs>
    <g id="Symbols" stroke="none" stroke-width="1" fill="none" fill-rule="evenodd">
        <g id="Footer-3" transform="translate(-699.000000, -18.000000)" fill-rule="nonzero" fill="#343439">
            <path d="M709,38 C703.485965,38 699,33.5140345 699,28 C699,22.4859655 703.485965,18 709,18 C714.514035,18 719,22.4859655 719,28 C719,33.5140345 714.514008,38 709,38 Z M717.43352,29.3688662 C717.141293,29.2766223 714.789698,28.5752613 712.112958,29.0037189 C713.230198,32.0737326 713.684777,34.5742925 713.772307,35.093744 C715.688673,33.7980322 717.052799,31.7455141 717.43352,29.3688662 L717.43352,29.3688662 Z M712.336485,35.8757338 C712.209447,35.1263497 711.713513,32.5146127 710.514342,29.3983728 C710.495539,29.4047794 710.476788,29.4108734 710.457985,29.4174102 C705.640259,31.0961868 703.910803,34.4372288 703.75715,34.7514623 C706.200479,36.6566117 709.484768,37.0869985 712.336485,35.8757338 L712.336485,35.8757338 Z M702.654286,33.7241746 C702.847758,33.3929611 705.191957,29.5115552 709.597163,28.0876343 C709.708488,28.051643 709.820681,28.0177873 709.933742,27.9860671 C709.719331,27.500862 709.485804,27.015084 709.241261,26.536546 C704.975697,27.8131162 700.836518,27.7597804 700.462803,27.7520978 C700.460199,27.8388206 700.458454,27.9257517 700.458454,28.0130996 C700.456807,30.1232319 701.239408,32.1586769 702.654286,33.7241746 L702.654286,33.7241746 Z M700.638879,26.2636165 C701.020902,26.2686428 704.540103,26.28393 708.535421,25.2229167 C707.120146,22.7071738 705.593773,20.5918663 705.368606,20.2830497 C702.979041,21.4101859 701.192733,23.6130756 700.638879,26.2636165 Z M706.99837,19.7089343 C707.234475,20.0250428 708.785797,22.1376419 710.185472,24.7091687 C713.222724,23.5707559 714.508592,21.8425499 714.662245,21.6237376 C712.5748,19.769952 709.712415,19.0547909 706.99837,19.7089343 Z M715.61169,22.6115443 C715.43163,22.8552276 714.000391,24.6900011 710.84217,25.9793845 C711.040929,26.3862525 711.231459,26.8000479 711.408863,27.2165779 C711.47173,27.3641542 711.533061,27.5110882 711.592856,27.6573798 C714.434968,27.3000193 717.258903,27.8727545 717.540505,27.9323145 C717.524158,25.9904807 716.843476,24.1127732 715.61169,22.6115443 Z" id="ic_dribbble"></path>
        </g>
    </g>
</svg>