<?xml version="1.0" encoding="UTF-8"?>
<svg width="21px" height="20px" viewBox="0 0 21 20" version="1.1" xmlns="http://www.w3.org/2000/svg" xmlns:xlink="http://www.w3.org/1999/xlink">
    <!-- Generator: Sketch 46.2 (44496) - http://www.bohemiancoding.com/sketch -->
    <title>ic_github</title>
    <desc>Created with Sketch.</desc>
    <defs></defs>
    <g id="Symbols" stroke="none" stroke-width="1" fill="none" fill-rule="evenodd">
        <g id="Footer-3" transform="translate(-906.000000, -18.000000)" fill-rule="nonzero" fill="#343439">
            <path d="M916.601528,18 C911.079207,18 906.601528,22.5892857 906.601528,28.2544643 C906.601528,32.7857143 909.467599,36.625 913.440814,37.9821429 C913.940814,38.0758929 914.123849,37.7589286 914.123849,37.4866071 C914.123849,37.2410714 914.114921,36.5982143 914.110457,35.7410714 C911.329207,36.3616071 910.739921,34.3660714 910.739921,34.3660714 C910.284564,33.1830357 909.628314,32.8660714 909.628314,32.8660714 C908.722064,32.2276786 909.695278,32.2410714 909.695278,32.2410714 C910.699742,32.3125 911.226528,33.2991071 911.226528,33.2991071 C912.119385,34.8660714 913.565814,34.4151786 914.137242,34.1517857 C914.226528,33.4910714 914.485457,33.0357143 914.771171,32.78125 C912.552421,32.5223214 910.217599,31.6428571 910.217599,27.7142857 C910.217599,26.59375 910.605992,25.6785714 911.244385,24.9642857 C911.141707,24.7053571 910.797957,23.6607143 911.342599,22.25 C911.342599,22.25 912.181885,21.9732143 914.092599,23.2991071 C914.891707,23.0714286 915.744385,22.9598214 916.597064,22.9553571 C917.445278,22.9598214 918.302421,23.0714286 919.101528,23.2991071 C921.012242,21.9732143 921.847064,22.25 921.847064,22.25 C922.391707,23.6607143 922.047957,24.7053571 921.945278,24.9642857 C922.583671,25.6830357 922.972064,26.5982143 922.972064,27.7142857 C922.972064,31.6517857 920.632778,32.5178571 918.405099,32.7723214 C918.762242,33.0892857 919.083671,33.7142857 919.083671,34.6696429 C919.083671,36.0401786 919.070278,37.1473214 919.070278,37.4821429 C919.070278,37.7544643 919.248849,38.0758929 919.757778,37.9732143 C923.739921,36.6205357 926.601528,32.78125 926.601528,28.2544643 C926.601528,22.5892857 922.123849,18 916.601528,18 Z" id="ic_github"></path>
        </g>
    </g>
</svg>