<svg width="21" height="20" viewBox="0 0 21 20" xmlns="http://www.w3.org/2000/svg"><title>ic_github</title><path d="M10.602 0c-5.523 0-10 4.59-10 10.254 0 4.532 2.866 8.371 6.839 9.728.5.094.683-.223.683-.495 0-.246-.01-.889-.014-1.746-2.78.62-3.37-1.375-3.37-1.375-.455-1.183-1.112-1.5-1.112-1.5-.906-.638.067-.625.067-.625C4.7 14.313 5.227 15.3 5.227 15.3c.892 1.567 2.339 1.116 2.91.853.09-.66.348-1.116.634-1.37-2.219-.26-4.553-1.14-4.553-5.068 0-1.12.388-2.035 1.026-2.75-.102-.259-.446-1.303.099-2.714 0 0 .839-.277 2.75 1.05a9.331 9.331 0 0 1 2.504-.345 9.393 9.393 0 0 1 2.505.344c1.91-1.326 2.745-1.049 2.745-1.049.545 1.41.201 2.455.098 2.714.639.719 1.027 1.634 1.027 2.75 0 3.938-2.34 4.804-4.567 5.058.357.317.679.942.679 1.898 0 1.37-.014 2.477-.014 2.812 0 .272.179.594.688.491 3.982-1.352 6.844-5.192 6.844-9.719C20.602 4.59 16.124 0 10.602 0z" fill="#343439"/></svg>