<?xml version="1.0" encoding="UTF-8"?>
<svg width="21px" height="20px" viewBox="0 0 21 20" version="1.1" xmlns="http://www.w3.org/2000/svg" xmlns:xlink="http://www.w3.org/1999/xlink">
    <!-- Generator: Sketch 46.2 (44496) - http://www.bohemiancoding.com/sketch -->
    <title>ic_instagram</title>
    <desc>Created with Sketch.</desc>
    <defs></defs>
    <g id="Symbols" stroke="none" stroke-width="1" fill="none" fill-rule="evenodd">
        <g id="Footer-3" transform="translate(-837.000000, -18.000000)" fill-rule="nonzero" fill="#343439">
            <g id="ic_instagram" transform="translate(837.392037, 18.000000)">
                <path d="M10.12,5 C7.32,5 5,7.28 5,10.12 C5,12.96 7.28,15.24 10.12,15.24 C12.96,15.24 15.24,12.92 15.24,10.12 C15.24,7.32 12.92,5 10.12,5 Z M10.12,13.4 C8.32,13.4 6.84,11.92 6.84,10.12 C6.84,8.32 8.32,6.84 10.12,6.84 C11.92,6.84 13.4,8.32 13.4,10.12 C13.4,11.92 11.92,13.4 10.12,13.4 Z" id="Shape"></path>
                <circle id="Oval" cx="15.24" cy="4.67016602" r="1"></circle>
                <path d="M18.24,1.64 C17.2,0.56 15.72,0 14.04,0 L5.8,0 C2.32,0 0,2.32 0,5.8 L0,14 C0,15.72 0.56,17.2 1.68,18.28 C2.76,19.32 4.2,19.84 5.84,19.84 L14,19.84 C15.72,19.84 17.16,19.28 18.2,18.28 C19.28,17.24 19.84,15.76 19.84,14.04 L19.84,5.8 C19.84,4.12 19.28,2.68 18.24,1.64 Z M18.08,14.04 C18.08,15.28 17.64,16.28 16.92,16.96 C16.2,17.64 15.2,18 14,18 L5.84,18 C4.64,18 3.64,17.64 2.92,16.96 C2.2,16.24 1.84,15.24 1.84,14 L1.84,5.8 C1.84,4.6 2.2,3.6 2.92,2.88 C3.6,2.2 4.64,1.84 5.84,1.84 L14.08,1.84 C15.28,1.84 16.28,2.2 17,2.92 C17.68,3.64 18.08,4.64 18.08,5.8 L18.08,14.04 L18.08,14.04 Z" id="Shape"></path>
            </g>
        </g>
    </g>
</svg>