<svg width="21" height="20" viewBox="0 0 21 20" xmlns="http://www.w3.org/2000/svg"><title>ic_instagram</title><g transform="translate(.392)" fill="#343439"><path d="M10.12 5C7.32 5 5 7.28 5 10.12c0 2.84 2.28 5.12 5.12 5.12 2.84 0 5.12-2.32 5.12-5.12 0-2.8-2.32-5.12-5.12-5.12zm0 8.4c-1.8 0-3.28-1.48-3.28-3.28 0-1.8 1.48-3.28 3.28-3.28 1.8 0 3.28 1.48 3.28 3.28 0 1.8-1.48 3.28-3.28 3.28z"/><circle cx="15.24" cy="4.67" r="1"/><path d="M18.24 1.64C17.2.56 15.72 0 14.04 0H5.8C2.32 0 0 2.32 0 5.8V14c0 1.72.56 3.2 1.68 4.28 1.08 1.04 2.52 1.56 4.16 1.56H14c1.72 0 3.16-.56 4.2-1.56 1.08-1.04 1.64-2.52 1.64-4.24V5.8c0-1.68-.56-3.12-1.6-4.16zm-.16 12.4c0 1.24-.44 2.24-1.16 2.92C16.2 17.64 15.2 18 14 18H5.84c-1.2 0-2.2-.36-2.92-1.04-.72-.72-1.08-1.72-1.08-2.96V5.8c0-1.2.36-2.2 1.08-2.92.68-.68 1.72-1.04 2.92-1.04h8.24c1.2 0 2.2.36 2.92 1.08.68.72 1.08 1.72 1.08 2.88v8.24z"/></g></svg>