<svg width="21" height="20" viewBox="0 0 21 20" xmlns="http://www.w3.org/2000/svg"><title>ic_linkedin</title><path d="M19.332 0H2.288C1.473 0 .811.642.811 1.433v17.135c0 .79.662 1.432 1.477 1.432h17.044c.817 0 1.479-.642 1.479-1.432V1.433C20.811.64 20.149 0 19.332 0zM6.873 16.743h-3.02V7.712h3.02v9.03zM5.363 6.478h-.02c-1.014 0-1.67-.694-1.67-1.56 0-.886.677-1.56 1.71-1.56s1.669.674 1.69 1.56c0 .866-.657 1.56-1.71 1.56zm12.403 10.265h-3.02V11.91c0-1.214-.438-2.042-1.53-2.042-.835 0-1.332.559-1.551 1.098-.08.193-.1.462-.1.733v5.043h-3.02s.04-8.184 0-9.03h3.02V8.99c.402-.616 1.12-1.492 2.724-1.492 1.987 0 3.477 1.291 3.477 4.065v5.18z" fill="#343439"/></svg>