<?xml version="1.0" encoding="UTF-8"?>
<svg width="21px" height="20px" viewBox="0 0 21 20" version="1.1" xmlns="http://www.w3.org/2000/svg" xmlns:xlink="http://www.w3.org/1999/xlink">
    <!-- Generator: Sketch 46.2 (44496) - http://www.bohemiancoding.com/sketch -->
    <title>ic_linkedin</title>
    <desc>Created with Sketch.</desc>
    <defs></defs>
    <g id="Symbols" stroke="none" stroke-width="1" fill="none" fill-rule="evenodd">
        <g id="Footer-3" transform="translate(-975.000000, -18.000000)" fill-rule="nonzero" fill="#343439">
            <path d="M994.332415,18 L977.288409,18 C976.472627,18 975.811019,18.6417628 975.811019,19.4327074 L975.811019,36.5676947 C975.811019,37.3582372 976.472627,38 977.288409,38 L994.332415,38 C995.14941,38 995.811019,37.3578351 995.811019,36.5676947 L995.811019,19.4327074 C995.811019,18.6413607 995.149005,18 994.332415,18 Z M981.873133,34.7425309 L978.852394,34.7425309 L978.852394,25.7116088 L981.873133,25.7116088 L981.873133,34.7425309 Z M980.362966,24.4779444 L980.342733,24.4779444 C979.329481,24.4779444 978.673942,23.7843098 978.673942,22.9177691 C978.673942,22.0319273 979.349714,21.3575938 980.382794,21.3575938 C981.416279,21.3575938 982.05199,22.0319273 982.072222,22.9177691 C982.072222,23.7843098 981.415874,24.4779444 980.362966,24.4779444 Z M992.766001,34.7425309 L989.745262,34.7425309 L989.745262,29.9100084 C989.745262,28.6964494 989.308237,27.8681089 988.215268,27.8681089 C987.380872,27.8681089 986.883957,28.4266356 986.66504,28.9662632 C986.585323,29.1588725 986.5659,29.4282842 986.5659,29.6985001 L986.5659,34.7421288 L983.545161,34.7421288 C983.545161,34.7421288 983.584817,26.557642 983.545161,25.7112067 L986.5659,25.7112067 L986.5659,26.989505 C986.967316,26.3742812 987.685171,25.49809 989.288813,25.49809 C991.276067,25.49809 992.766406,26.7892557 992.766406,29.5633922 L992.766406,34.7425309 L992.766001,34.7425309 Z" id="ic_linkedin"></path>
        </g>
    </g>
</svg>