<svg width="20" height="17" viewBox="0 0 20 17" xmlns="http://www.w3.org/2000/svg"><title>ic_twitter</title><path d="M20 1.924a8.144 8.144 0 0 1-2.357.645A4.119 4.119 0 0 0 19.448.3a8.217 8.217 0 0 1-2.606.995A4.101 4.101 0 0 0 13.846 0a4.102 4.102 0 0 0-4.102 4.103c0 .321.035.635.105.935A11.651 11.651 0 0 1 1.392.751a4.104 4.104 0 0 0 1.27 5.479 4.09 4.09 0 0 1-1.859-.514v.052a4.106 4.106 0 0 0 3.291 4.024 4.13 4.13 0 0 1-1.852.07 4.108 4.108 0 0 0 3.832 2.85A8.23 8.23 0 0 1 0 14.412a11.623 11.623 0 0 0 6.29 1.842c7.547 0 11.674-6.252 11.674-11.675 0-.177-.005-.355-.012-.531A8.324 8.324 0 0 0 20 1.924z" fill="#343439"/></svg>