<?xml version="1.0" encoding="UTF-8"?>
<svg width="20px" height="17px" viewBox="0 0 20 17" version="1.1" xmlns="http://www.w3.org/2000/svg" xmlns:xlink="http://www.w3.org/1999/xlink">
    <!-- Generator: Sketch 46.2 (44496) - http://www.bohemiancoding.com/sketch -->
    <title>ic_twitter</title>
    <desc>Created with Sketch.</desc>
    <defs></defs>
    <g id="Symbols" stroke="none" stroke-width="1" fill="none" fill-rule="evenodd">
        <g id="Footer-3" transform="translate(-1114.000000, -20.000000)" fill-rule="nonzero" fill="#343439">
            <path d="M1134,21.9236059 C1133.26419,22.2505626 1132.47399,22.4712428 1131.64316,22.5693923 C1132.49025,22.0617654 1133.14104,21.2578145 1133.44799,20.300075 C1132.65466,20.7695674 1131.77694,21.112153 1130.84234,21.2953238 C1130.0934,20.4982496 1129.02688,20 1127.84596,20 C1125.57977,20 1123.74369,21.8367092 1123.74369,24.1029007 C1123.74369,24.4242311 1123.77932,24.7380595 1123.84934,25.0381345 C1120.43911,24.8668417 1117.41585,23.2333083 1115.3916,20.7508127 C1115.03901,21.3572143 1114.83646,22.0617654 1114.83646,22.8138285 C1114.83646,24.2379345 1115.56102,25.4932483 1116.66129,26.2296824 C1115.98925,26.207802 1115.35659,26.024006 1114.80333,25.7164291 C1114.8027,25.7333083 1114.8027,25.7514379 1114.8027,25.7676919 C1114.8027,27.7563141 1116.2168,29.4148537 1118.09415,29.791823 C1117.75031,29.8849712 1117.38772,29.9356089 1117.01325,29.9356089 C1116.74819,29.9356089 1116.49187,29.9099775 1116.24181,29.8624656 C1116.76319,31.4916229 1118.27919,32.6781695 1120.07402,32.711928 C1118.67054,33.8122031 1116.90135,34.4692423 1114.97899,34.4692423 C1114.64766,34.4692423 1114.32071,34.4498625 1114,34.4117279 C1115.81545,35.5745186 1117.97224,36.2540635 1120.2897,36.2540635 C1127.83658,36.2540635 1131.96449,30.0018755 1131.96449,24.5792698 C1131.96449,24.4017254 1131.95949,24.224181 1131.95199,24.047887 C1132.75406,23.4696174 1133.44924,22.7475619 1134,21.9236059 Z" id="ic_twitter"></path>
        </g>
    </g>
</svg>