<?xml version="1.0" encoding="UTF-8"?>
<svg width="90px" height="62px" viewBox="0 0 90 62" version="1.1" xmlns="http://www.w3.org/2000/svg" xmlns:xlink="http://www.w3.org/1999/xlink">
    <!-- Generator: Sketch 46.2 (44496) - http://www.bohemiancoding.com/sketch -->
    <title>ic_responsive_web_design</title>
    <desc>Created with Sketch.</desc>
    <defs></defs>
    <g id="visual" stroke="none" stroke-width="1" fill="none" fill-rule="evenodd">
        <g id="Home" transform="translate(-285.000000, -1197.000000)">
            <g id="ic_responsive_web_design" transform="translate(270.000000, 1170.000000)">
                <rect id="Rectangle" stroke="#F52B22" stroke-width="2" fill="#FFFFFF" x="16" y="28" width="76" height="52" rx="3"></rect>
                <rect id="Rectangle-2-Copy" fill="#FEE9E8" x="40" y="48" width="8" height="8" rx="1"></rect>
                <rect id="Rectangle-2-Copy-7" fill="#FEE9E8" x="24" y="48" width="8" height="8" rx="1"></rect>
                <rect id="Rectangle-2-Copy-3" fill="#FEE9E8" x="56" y="48" width="8" height="8" rx="1"></rect>
                <rect id="Rectangle-2-Copy-2" fill="#FEE9E8" x="40" y="64" width="8" height="8" rx="1"></rect>
                <rect id="Rectangle-2-Copy-8" fill="#FEE9E8" x="24" y="64" width="8" height="8" rx="1"></rect>
                <rect id="Rectangle-2-Copy-4" fill="#FEE9E8" x="56" y="64" width="8" height="8" rx="1"></rect>
                <path d="M16,39.5 L92.3011642,39.5" id="Path-3" stroke="#F52B22" stroke-width="2" fill="#FFFFFF"></path>
                <circle id="Oval" fill="#F52B22" cx="22" cy="34" r="2"></circle>
                <circle id="Oval" fill="#F52B22" cx="30" cy="34" r="2"></circle>
                <circle id="Oval" fill="#F52B22" cx="38" cy="34" r="2"></circle>
                <rect id="Rectangle" stroke="#F52B22" stroke-width="2" fill="#FFFFFF" x="72" y="36" width="32" height="52" rx="3"></rect>
                <rect id="Rectangle-2-Copy-5" fill="#FEE9E8" x="80" y="44" width="16" height="8" rx="1"></rect>
                <rect id="Rectangle-2-Copy-6" fill="#FEE9E8" x="80" y="56" width="16" height="8" rx="1"></rect>
                <rect id="Rectangle-2-Copy-9" fill="#FEE9E8" x="80" y="68" width="16" height="8" rx="1"></rect>
                <circle id="Oval-2" fill="#F52B22" cx="88" cy="82" r="2"></circle>
            </g>
        </g>
    </g>
</svg>