<svg width="47" height="33" viewBox="0 0 47 33" xmlns="http://www.w3.org/2000/svg"><title>ic_balance</title><g transform="translate(-7 -15)" fill="none" fill-rule="evenodd"><path d="M31.536 37.844l5.73 6.876A2 2 0 0 1 35.73 48H24.27a2 2 0 0 1-1.536-3.28l5.73-6.876a2 2 0 0 1 3.072 0z" fill="#F52B22"/><path d="M8.125 36.039h44.009" stroke="#F52B22" stroke-width="2" fill="#FFF" stroke-linecap="round"/><rect stroke="#F52B22" stroke-width="2" fill="#FFF" x="12" y="18" width="8" height="4" rx="2"/><rect stroke="#F52B22" stroke-width="2" fill="#FEE9E8" x="8" y="21" width="16" height="11" rx="2"/><path d="M8 25h16.016" stroke="#F52B22" stroke-width="2" fill="#FFF"/><path d="M39 18h6a3 3 0 0 1 3 3v5a6 6 0 1 1-12 0v-5a3 3 0 0 1 3-3z" stroke="#F52B22" stroke-width="2" fill="#FEE9E8"/><path d="M36 16h14v2a2 2 0 0 1-2 2h-9.053a2 2 0 0 0-1.39.562L36.069 22A1.22 1.22 0 0 1 34 21.122V18a2 2 0 0 1 2-2z" stroke="#F52B22" stroke-width="2" fill="#FEE9E8"/><path d="M40 27c.9.667 1.567 1 2 1 .433 0 1.1-.333 2-1" stroke="#F52B22" stroke-width="2" fill="#FFF"/><circle fill="#F52B22" cx="40" cy="23" r="1"/><circle fill="#F52B22" cx="44" cy="23" r="1"/></g></svg>