<?xml version="1.0" encoding="UTF-8"?>
<svg width="44px" height="44px" viewBox="0 0 44 44" version="1.1" xmlns="http://www.w3.org/2000/svg" xmlns:xlink="http://www.w3.org/1999/xlink">
    <!-- Generator: Sketch 46.2 (44496) - http://www.bohemiancoding.com/sketch -->
    <title>ic_experience</title>
    <desc>Created with Sketch.</desc>
    <defs></defs>
    <g id="visual" stroke="none" stroke-width="1" fill="none" fill-rule="evenodd">
        <g id="Home" transform="translate(-938.000000, -2874.000000)">
            <g id="ic_experience-3" transform="translate(930.000000, 2866.000000)">
                <path d="M11,8 L25,8 L25,8 C26.6568542,8 28,9.34314575 28,11 L28,25 L28,25 C28,26.6568542 26.6568542,28 25,28 L11,28 L11,28 C9.34314575,28 8,26.6568542 8,25 L8,11 L8,11 C8,9.34314575 9.34314575,8 11,8 Z" id="Rectangle" fill="#F52B22" fill-rule="evenodd"></path>
                <path d="M11,32 L25,32 L25,32 C26.6568542,32 28,33.3431458 28,35 L28,49 L28,49 C28,50.6568542 26.6568542,52 25,52 L11,52 L11,52 C9.34314575,52 8,50.6568542 8,49 L8,35 L8,35 C8,33.3431458 9.34314575,32 11,32 Z" id="Rectangle-Copy" fill="#F52B22" fill-rule="evenodd"></path>
                <path d="M35,32 L49,32 L49,32 C50.6568542,32 52,33.3431458 52,35 L52,49 L52,49 C52,50.6568542 50.6568542,52 49,52 L35,52 L35,52 C33.3431458,52 32,50.6568542 32,49 L32,35 L32,35 C32,33.3431458 33.3431458,32 35,32 Z" id="Rectangle-Copy-2" fill="#F52B22" fill-rule="evenodd"></path>
                <path d="M35,8 L49,8 L49,8 C50.6568542,8 52,9.34314575 52,11 L52,25 L52,25 C52,26.6568542 50.6568542,28 49,28 L35,28 L35,28 C33.3431458,28 32,26.6568542 32,25 L32,11 L32,11 C32,9.34314575 33.3431458,8 35,8 Z" id="Rectangle-Copy-3" fill="#F52B22" fill-rule="evenodd"></path>
                <g id="Group-2" stroke-width="1" fill-rule="evenodd" transform="translate(35.000000, 12.000000)">
                    <path d="M3.50860283,4 L10.4913972,4 L10.4913972,4 C11.3843579,4 12.1691299,4.59195463 12.4144451,5.45055774 L13.2715879,8.45055774 L13.2715879,8.45055774 C13.5750365,9.51262777 12.9600523,10.6195993 11.8979823,10.9230479 C11.7192994,10.9741002 11.5343731,11 11.34854,11 L2.65145997,11 L2.65145997,11 C1.54689047,11 0.651459968,10.1045695 0.651459968,9 C0.651459968,8.81416695 0.677359807,8.62924068 0.728412073,8.45055774 L1.58555493,5.45055774 L1.58555493,5.45055774 C1.83087011,4.59195463 2.61564211,4 3.50860283,4 Z" id="Rectangle-8" fill="#FEE9E8"></path>
                    <path d="M4.5,5 L5.04496543,2.47356068 L5.04496543,2.47356068 C5.27786977,1.3938249 6.34197483,0.707332383 7.42171061,0.94023672 C8.18958819,1.10587171 8.78939958,1.7056831 8.95503457,2.47356068 L9.5,5" id="Path-13" stroke="#FEE9E8" stroke-width="2"></path>
                </g>
                <path d="M44.1225228,46.0196543 L43.1770195,43.8695587 L43.1770195,43.8695587 C42.9546992,43.3639975 42.3646347,43.1343854 41.8590734,43.3567057 C41.7470864,43.4059519 41.6450862,43.4753289 41.5581397,43.5613904 L40.4794501,44.6290997 L40.4794501,44.6290997 C40.2093957,44.8964051 40.1141684,45.2936685 40.2336873,45.6543579 L40.5568937,46.6297446 L40.5568937,46.6297446 C40.6716945,46.9761954 40.5802263,47.3577764 40.3208326,47.6145297 L40.3208326,47.6145297 L40.3208326,47.6145297 C40.1608591,47.7728748 39.9028109,47.7715547 39.7444659,47.6115812 C39.7089075,47.5756572 39.680342,47.5334321 39.660227,47.4870606 L38.7555073,45.4013912 L38.7555073,45.4013912 C38.6614261,45.1845037 38.493546,45.0079623 38.2816616,44.9030985 L36.1972847,43.8715188 L36.1972847,43.8715188 C36.0218596,43.7846991 35.9500308,43.5721077 36.0368505,43.3966826 C36.0542318,43.3615623 36.0773173,43.3295678 36.1051674,43.3020013 L36.1051674,43.3020013 L36.1051674,43.3020013 C36.3218982,43.0874766 36.6402458,43.0118679 36.9302912,43.1060313 L38.0304503,43.4631986 L38.0304503,43.4631986 C38.3862793,43.5787187 38.7768297,43.4859616 39.0427161,43.2227817 L40.1095139,42.1668431 L40.1095139,42.1668431 C40.5020309,41.7783217 40.5052699,41.145165 40.1167485,40.752648 C40.0264952,40.6614666 39.9195393,40.5885041 39.8017143,40.5377401 L37.6426088,39.6075059 L37.6426088,39.6075059 C37.470618,39.533405 37.3912626,39.3339082 37.4653635,39.1619175 C37.4825771,39.1219641 37.507318,39.0856964 37.5382368,39.0550923 L37.5429695,39.0504078 L37.5429695,39.0504078 C37.7650368,38.830601 38.0770812,38.7272255 38.3864599,38.7709726 L42.4050427,39.3392121 L42.4050427,39.3392121 C42.7144213,39.3829591 43.0264657,39.2795837 43.2485331,39.0597768 L45.0392123,37.2873254 C45.4549963,36.8757738 46.1107802,36.933772 46.4679695,37.2873254 C46.8251588,37.6408788 46.8683541,38.30523 46.4679695,38.7015389 L44.6831076,40.4682323 L44.6831076,40.4682323 C44.4577648,40.6912813 44.3515514,41.0079798 44.3968429,41.3217933 L44.967421,45.2751832 L44.967421,45.2751832 C45.0125754,45.5880466 44.9066836,45.9037864 44.682023,46.1261601 L44.682023,46.1261601 L44.682023,46.1261601 C44.5463654,46.2604368 44.3275405,46.2593174 44.1932638,46.1236598 C44.1635202,46.0936103 44.1395428,46.058358 44.1225228,46.0196543 Z" id="Shape" fill="#FEE9E8" fill-rule="nonzero" transform="translate(41.376145, 42.366215) rotate(-360.000000) translate(-41.376145, -42.366215) "></path>
                <g id="Group" stroke-width="1" fill-rule="evenodd" transform="translate(12.000000, 13.000000)">
                    <path d="M10,6.5 L10,1.37181723 L10,1.37181723 C10,0.819532477 9.55228475,0.371817226 9,0.371817226 C8.89612451,0.371817226 8.79288325,0.388001813 8.69399082,0.419788665 L3.69399082,2.02693152 L3.69399082,2.02693152 C3.28043774,2.1598593 3,2.54456862 3,2.97896008 L3,8.75" id="Path-12" stroke="#FEE9E8" stroke-width="2"></path>
                    <path d="M2,11 C3.1045695,11 4,10.1045695 4,9 C4,7.8954305 3.1045695,7 2,7 C0.8954305,7 0,7.8954305 0,9 C0,10.1045695 0.8954305,11 2,11 Z" id="Oval" fill="#FEE9E8"></path>
                    <path d="M9,8 C10.1045695,8 11,7.1045695 11,6 C11,4.8954305 10.1045695,4 9,4 C7.8954305,4 7,4.8954305 7,6 C7,7.1045695 7.8954305,8 9,8 Z" id="Oval-Copy" fill="#FEE9E8"></path>
                </g>
                <g id="Group-3" stroke-width="1" fill-rule="evenodd" transform="translate(11.000000, 38.000000)">
                    <rect id="Rectangle-8" fill="#FEE9E8" x="1" y="0" width="12" height="8" rx="2"></rect>
                    <rect id="Rectangle-2" fill="#F52B22" x="0" y="2" width="14" height="2"></rect>
                </g>
            </g>
        </g>
    </g>
</svg>