<svg width="44" height="44" viewBox="0 0 44 44" xmlns="http://www.w3.org/2000/svg"><title>ic_experience</title><g fill="none" fill-rule="evenodd"><path d="M3 0h14a3 3 0 0 1 3 3v14a3 3 0 0 1-3 3H3a3 3 0 0 1-3-3V3a3 3 0 0 1 3-3zm0 24h14a3 3 0 0 1 3 3v14a3 3 0 0 1-3 3H3a3 3 0 0 1-3-3V27a3 3 0 0 1 3-3zm24 0h14a3 3 0 0 1 3 3v14a3 3 0 0 1-3 3H27a3 3 0 0 1-3-3V27a3 3 0 0 1 3-3zm0-24h14a3 3 0 0 1 3 3v14a3 3 0 0 1-3 3H27a3 3 0 0 1-3-3V3a3 3 0 0 1 3-3z" fill="#F52B22"/><path d="M30.509 8h6.982a2 2 0 0 1 1.923 1.45l.858 3A2 2 0 0 1 38.349 15H29.65a2 2 0 0 1-1.923-2.55l.858-3A2 2 0 0 1 30.509 8z" fill="#FEE9E8"/><path d="M31.5 9l.545-2.526a2 2 0 0 1 3.91 0L36.5 9" stroke="#FEE9E8" stroke-width="2"/><path d="M36.123 38.02l-.946-2.15a1 1 0 0 0-1.619-.309L32.48 36.63a1 1 0 0 0-.245 1.025l.323.976a.96.96 0 0 1-.236.985.408.408 0 0 1-.66-.128l-.905-2.086a1 1 0 0 0-.474-.498l-2.085-1.031a.354.354 0 0 1-.092-.57.815.815 0 0 1 .825-.196l1.1.357a1 1 0 0 0 1.013-.24l1.067-1.056a1 1 0 0 0-.308-1.63l-2.16-.93a.34.34 0 0 1-.104-.552l.005-.005a1 1 0 0 1 .843-.279l4.019.568a1 1 0 0 0 .844-.28l1.79-1.772c.416-.411 1.072-.353 1.429 0 .357.354.4 1.018 0 1.415l-1.785 1.766a1 1 0 0 0-.286.854l.57 3.953a.997.997 0 0 1-.285.851.346.346 0 0 1-.56-.106z" fill="#FEE9E8" fill-rule="nonzero"/><path d="M14 11.5V6.372a1 1 0 0 0-1.306-.952l-5 1.607A1 1 0 0 0 7 7.979v5.771" stroke="#FEE9E8" stroke-width="2"/><path d="M6 16a2 2 0 1 0 0-4 2 2 0 0 0 0 4zm7-3a2 2 0 1 0 0-4 2 2 0 0 0 0 4z" fill="#FEE9E8"/><g transform="translate(3 30)"><rect fill="#FEE9E8" x="1" width="12" height="8" rx="2"/><path fill="#F52B22" d="M0 2h14v2H0z"/></g></g></svg>