<?xml version="1.0" encoding="UTF-8"?>
<svg width="29px" height="46px" viewBox="0 0 29 46" version="1.1" xmlns="http://www.w3.org/2000/svg" xmlns:xlink="http://www.w3.org/1999/xlink">
    <!-- Generator: Sketch 46.2 (44496) - http://www.bohemiancoding.com/sketch -->
    <title>ic_investment</title>
    <desc>Created with Sketch.</desc>
    <defs></defs>
    <g id="visual" stroke="none" stroke-width="1" fill="none" fill-rule="evenodd">
        <g id="Home" transform="translate(-946.000000, -2636.000000)" stroke-width="2">
            <g id="ic_investment" transform="translate(930.000000, 2629.000000)">
                <path d="M30,52 L30,28" id="Path-18" stroke="#F52B22" fill="#FFFFFF" fill-rule="evenodd" stroke-linecap="round"></path>
                <path d="M22,44 L30,36" id="Path-19" stroke="#F52B22" fill="#FFFFFF" fill-rule="evenodd" transform="translate(26.000000, 40.000000) scale(-1, 1) translate(-26.000000, -40.000000) "></path>
                <path d="M30,49.4852814 L38.4852814,41" id="Path-19" stroke="#F52B22" fill="#FFFFFF" fill-rule="evenodd"></path>
                <path d="M39.6568542,43.4852814 C45.0265684,43.4852814 43.2828805,35.4852814 39.6568542,35.4852814 C36.030828,35.4852814 34.2871401,43.4852814 39.6568542,43.4852814 Z" id="Oval-7" stroke="#F52B22" fill="#FEE9E8" fill-rule="evenodd" transform="translate(39.656854, 39.485281) rotate(-315.000000) translate(-39.656854, -39.485281) "></path>
                <path d="M21.2426407,39.1352795 C26.6123548,39.1352795 24.8686669,30.6499981 21.2426407,30.6499981 C17.6166145,30.6499981 15.8729266,39.1352795 21.2426407,39.1352795 Z" id="Oval-7" stroke="#F52B22" fill="#FEE9E8" fill-rule="evenodd" transform="translate(21.242641, 34.892639) scale(-1, 1) rotate(-315.000000) translate(-21.242641, -34.892639) "></path>
                <circle id="Oval-8" stroke="#F52B22" fill="#F52B22" fill-rule="evenodd" cx="30" cy="18" r="10"></circle>
                <path d="M28,22 C30.6666667,22.7351888 32,22.0685221 32,20 C32,16.8972168 28,18.9482422 28,16 C28,14.0345052 29.3333333,13.3678385 32,14" id="Path-18-Copy" stroke="#FEE9E8" stroke-linecap="round"></path>
                <path d="M30,13 L30,12" id="Path-20" stroke="#FEE9E8" stroke-linecap="round" stroke-linejoin="round"></path>
                <path d="M30,24 L30,23" id="Path-20" stroke="#FEE9E8" stroke-linecap="round" stroke-linejoin="round"></path>
                <path d="M20,52 L40,52" id="Path-21" stroke="#F52B22" fill="#FFFFFF" fill-rule="evenodd" stroke-linecap="round"></path>
            </g>
        </g>
    </g>
</svg>