<svg width="44" height="34" viewBox="0 0 44 34" xmlns="http://www.w3.org/2000/svg"><title>ic_my_partner</title><g transform="translate(-8 -14)" fill="#F52B22" fill-rule="evenodd"><circle cx="14" cy="20" r="6"/><path d="M8.317 31.367l.854-1.709A3 3 0 0 1 11.854 28h2.825a3 3 0 0 1 2.195.955C18.094 30.265 19.136 31.28 20 32c1.064.886 3.73 2.22 8 4v4l-8-3v8a3 3 0 0 1-3 3h-6a3 3 0 0 1-3-3V32.708a3 3 0 0 1 .317-1.341z"/><circle transform="matrix(-1 0 0 1 92 0)" cx="46" cy="20" r="6"/><path d="M51.683 31.367l-.854-1.709A3 3 0 0 0 48.146 28H45.32a3 3 0 0 0-2.195.955C41.906 30.265 40.864 31.28 40 32c-1.064.886-3.73 2.22-8 4v4l8-3v8a3 3 0 0 0 3 3h6a3 3 0 0 0 3-3V32.708a3 3 0 0 0-.317-1.341z"/></g></svg>