<svg width="36" height="44" viewBox="0 0 36 44" xmlns="http://www.w3.org/2000/svg"><title>ic_product_thinking</title><g fill="none" fill-rule="evenodd"><path d="M15 0h8a9 9 0 0 1 9 9v8.092a3 3 0 0 0 .504 1.664l2.387 3.58A1.07 1.07 0 0 1 34 24a2 2 0 0 0-2 2v7a3 3 0 0 1-3 3h-6a3 3 0 0 0-3 3v2a3 3 0 0 1-3 3H3a3 3 0 0 1-3-3V15C0 6.716 6.716 0 15 0z" fill="#F52B22"/><g stroke="#F52B22" stroke-width="2"><path d="M9.658 11.17l5-2.5a3 3 0 0 1 2.684 0l5 2.5A3 3 0 0 1 24 13.855v8.292a3 3 0 0 1-1.658 2.683l-5 2.5a3 3 0 0 1-2.684 0l-5-2.5A3 3 0 0 1 8 22.146v-8.292a3 3 0 0 1 1.658-2.683z" fill="#FEE9E8"/><path d="M17 16.403l-9-4m8 4l8.5-3.903" fill="#FFF"/></g><path d="M16.5 16v12" stroke="#F52B22" stroke-width="2" fill="#FFF"/></g></svg>