<?xml version="1.0" encoding="UTF-8"?>
<svg width="36px" height="44px" viewBox="0 0 36 44" version="1.1" xmlns="http://www.w3.org/2000/svg" xmlns:xlink="http://www.w3.org/1999/xlink">
    <!-- Generator: Sketch 46.2 (44496) - http://www.bohemiancoding.com/sketch -->
    <title>ic_product_thinking</title>
    <desc>Created with Sketch.</desc>
    <defs></defs>
    <g id="visual" stroke="none" stroke-width="1" fill="none" fill-rule="evenodd">
        <g id="Home" transform="translate(-649.000000, -3101.000000)">
            <g id="ic_product_thinking" transform="translate(637.000000, 3093.000000)">
                <path d="M27,8 L35,8 L35,8 C39.9705627,8 44,12.0294373 44,17 L44,25.0916731 L44,25.0916731 C44,25.683948 44.1753141,26.2629711 44.5038491,26.7557737 L46.8905996,30.3358994 L46.8905996,30.3358994 C47.2185093,30.827764 47.0855977,31.4923224 46.5937331,31.8202321 C46.4179065,31.9374498 46.2113173,32 46,32 L46,32 L46,32 C44.8954305,32 44,32.8954305 44,34 L44,41 L44,41 C44,42.6568542 42.6568542,44 41,44 L35,44 L35,44 C33.3431458,44 32,45.3431458 32,47 L32,49 L32,49 C32,50.6568542 30.6568542,52 29,52 L15,52 L15,52 C13.3431458,52 12,50.6568542 12,49 L12,23 L12,23 C12,14.7157288 18.7157288,8 27,8 Z" id="Rectangle" fill="#F52B22"></path>
                <g id="Group" stroke-width="1" transform="translate(20.000000, 16.000000)" stroke="#F52B22">
                    <path d="M1.65835921,3.17082039 L6.65835921,0.670820393 L6.65835921,0.670820393 C7.50294169,0.248529157 8.49705831,0.248529157 9.34164079,0.670820393 L14.3416408,3.17082039 L14.3416408,3.17082039 C15.3579929,3.67899644 16,4.71778579 16,5.85410197 L16,14.145898 L16,14.145898 C16,15.2822142 15.3579929,16.3210036 14.3416408,16.8291796 L9.34164079,19.3291796 L9.34164079,19.3291796 C8.49705831,19.7514708 7.50294169,19.7514708 6.65835921,19.3291796 L1.65835921,16.8291796 L1.65835921,16.8291796 C0.642007129,16.3210036 1.47142623e-15,15.2822142 1.33226763e-15,14.145898 L0,5.85410197 L4.4408921e-16,5.85410197 C-1.99695139e-16,4.71778579 0.642007129,3.67899644 1.65835921,3.17082039 Z" id="Rectangle-5" stroke-width="2" fill="#FEE9E8"></path>
                    <path d="M0,8.40335309 L9,4.40335309" id="Path-11" stroke-width="2" fill="#FFFFFF" transform="translate(4.500000, 6.500000) scale(-1, 1) translate(-4.500000, -6.500000) "></path>
                    <path d="M8,8.40335309 L16.5,4.5" id="Path-11" stroke-width="2" fill="#FFFFFF"></path>
                </g>
                <path d="M28.5,24 L28.5,36" id="Path-10" stroke="#F52B22" stroke-width="2" fill="#FFFFFF"></path>
            </g>
        </g>
    </g>
</svg>