<svg width="98" height="103" viewBox="0 0 98 103" xmlns="http://www.w3.org/2000/svg"><title>logo/d</title><g fill="none" fill-rule="evenodd"><path stroke="#343439" opacity=".2" d="M.5.5h97v102H.5z"/><path d="M16.5 64V49.8H20V64h-3.5zm6 0V49h3.2v15h-3.3zm11 1.5c0 .5-.3 1-.5 1.4l-1 1-1 .6-1.8.2h-1l-.8-.2.4-2.8c.2 0 .3 0 .5.2h.6c.4 0 .7 0 1-.3l.5-1 .4-1-4.3-9.7h3.6l2.3 6.4 2-6.4H38l-4.4 11.5zM45 59.7h-1.5c-.5 0-.8 0-1 .2-.4 0-.6 0-.8.3-.2.2-.3.4-.3.7 0 .2 0 .4.2.5l.3.3.4.2h.5c.5 0 1 0 1.4-.5.3-.4.5-1 .5-1.5v-.3zm-6-4.3c.5-.6 1.2-1 2-1.3.7 0 1.5-.3 2.3-.3 1 0 1.6 0 2.2.3.6.2 1 .6 1.4 1l.7 1.6.2 2.4v5h-3v-1l-1.3 1-1.7.2h-1.2l-1.2-.6-.8-1c-.3-.4-.4-1-.4-1.5 0-.6.2-1.2.6-1.6.4-.5 1-.8 1.5-1 .7-.3 1.3-.4 2-.5 1-.2 1.6-.2 2.3-.2v-.2c0-.5-.2-1-.5-1-.3-.3-.8-.4-1.3-.4-.4 0-1 0-1.3.3-.5.2-.8.4-1 .7l-1.8-1.8zM15.7 84v-3l6.7-8.3H16v-3h10.8v3l-7 8.3h7v3H16zM39 79c0 .8 0 1.5-.4 2.2-.3.7-.7 1.2-1.2 1.7-.5.3-1 .7-1.8 1l-2 .3c-1 0-1.6 0-2.3-.4l-1.7-1c-.5-.6-1-1-1.2-1.8-.3-.7-.5-1.4-.5-2.2 0-.8 0-1.6.4-2.2.3-.7.7-1.2 1.2-1.7l1.7-1c.7-.2 1.4-.3 2.2-.3.7 0 1.4 0 2 .4l2 1c.4.6.8 1 1 1.8.4.6.5 1.4.5 2.2zm-3.2 0v-1l-.6-.8-.7-.5c-.3-.2-.7-.3-1-.3-.4 0-.8 0-1 .3-.4 0-.6.3-.8.5l-.4.8-.2 1 .3 1 .4.8.8.5c.3.2.6.3 1 .3s.7 0 1-.3c.3 0 .5-.3.7-.5l.5-1V79zm11.4-2.3h-.4-.4c-.4 0-.8 0-1 .2-.4 0-.6.2-.8.4l-.4.8V84h-3.4V74h3v1.5h.2c.2-.5.6-1 1-1.3.5-.3 1-.4 1.7-.4h.8l-.2 3zM52 71l-.2.6c0 .2-.2.4-.4.5-.2.3-.4.4-.6.5l-.7.2c-.5 0-1-.2-1.3-.6-.3-.2-.5-.6-.5-1V70l.5-.6.6-.4H51c.2 0 .4.2.6.4.2 0 .3.3.4.6l.2.7zm-3.6 13V74h3.3v10h-3.3zM60 79.7h-1.5c-.5 0-.8 0-1 .2-.4 0-.6 0-.8.3-.2.2-.3.4-.3.7v.5c.2 0 .3.2.5.3l.3.2h.5c.7 0 1.2 0 1.6-.5.3-.4.5-1 .5-1.5v-.3zm-6-4.3c.5-.6 1-1 2-1.3.7 0 1.5-.3 2.3-.3 1 0 1.6 0 2.2.3.5.2 1 .6 1.4 1 .2.4.5 1 .6 1.6.2.7.3 1.5.3 2.4v5h-3v-1h-.2c-.2.4-.6.7-1 1L57 84h-1.2l-1.2-.6-1-1-.2-1.5c0-.6.2-1.2.6-1.6.4-.5 1-.8 1.5-1 .6-.3 1.3-.4 2-.5.8-.2 1.6-.2 2.3-.2v-.2c0-.5-.2-1-.5-1-.4-.3-.8-.4-1.3-.4s-1 0-1.4.3c-.4.2-.8.4-1 .7l-1.7-1.8z" fill="#343439"/></g></svg>