<?xml version="1.0" encoding="UTF-8"?>
<svg width="100px" height="105px" viewBox="0 0 100 105" version="1.1" xmlns="http://www.w3.org/2000/svg" xmlns:xlink="http://www.w3.org/1999/xlink">
    <!-- Generator: Sketch 46.2 (44496) - http://www.bohemiancoding.com/sketch -->
    <title>Group 3</title>
    <desc>Created with Sketch.</desc>
    <defs></defs>
    <g id="Symbols" stroke="none" stroke-width="1" fill="none" fill-rule="evenodd">
        <g id="logo" transform="translate(1.000000, 1.000000)">
            <g id="Group-3">
                <rect id="Rectangle-7" stroke="#343439" opacity="0.200000003" x="0" y="0" width="98" height="103"></rect>
                <path d="M17,49 L20,49 L20,62 L17,62 L17,49 Z M22.6091371,61.1972028 C22.2030437,60.662002 22,59.9049 22,58.9258741 L22,48 L24.7614213,48 L24.7614213,59.0433566 C24.7614213,59.3174839 24.8155663,59.5165495 24.9238579,59.6405594 C25.0321494,59.7645694 25.1539756,59.8265734 25.2893401,59.8265734 C25.4247046,59.8265734 25.5465308,59.8135199 25.6548223,59.7874126 L26,61.7846154 C25.607443,61.9282058 25.1336745,62 24.5786802,62 C23.6717383,62 23.0152305,61.7324036 22.6091371,61.1972028 Z M26.7157464,65.7976879 L27.2269939,63.6734104 C27.5132939,63.7678232 27.7450571,63.8150289 27.9222904,63.8150289 C28.8220904,63.8150289 29.4355812,63.3294846 29.7627812,62.3583815 L29.9263804,61.7919075 L26,52 L28.8220859,52 L30.3558282,56.5115607 C30.5194282,56.9836247 30.710292,57.6107861 30.9284254,58.3930636 C31.0238587,58.7572273 31.112474,59.0741798 31.194274,59.3439306 L31.2760736,59.3439306 C31.453307,58.5751407 31.6918867,57.6310268 31.99182,56.5115607 L33.3210634,52 L36,52 L32.4417178,62.2369942 C31.9509178,63.5317984 31.3851429,64.4826559 30.7443763,65.0895954 C30.1036096,65.6965348 29.2310894,66 28.1267894,66 C27.6359894,66 27.1656464,65.9325633 26.7157464,65.7976879 Z M37.7732697,61.1907514 C37.257754,60.6512497 37,59.9704601 37,59.1483622 C37,58.1335852 37.4264078,57.3468236 38.2792363,56.7880539 C39.1320647,56.2292843 40.5003884,55.847143 42.3842482,55.6416185 C42.3460619,54.6139961 41.8241896,54.1001927 40.8186158,54.1001927 C40.4240235,54.1001927 40.0230728,54.1772632 39.6157518,54.3314066 C39.2084307,54.4855499 38.76293,54.7039164 38.2792363,54.9865125 L37.3436754,53.2524085 C38.6801976,52.4174653 40.0039712,52 41.3150358,52 C42.5242702,52 43.4407288,52.3564512 44.0644391,53.0693642 C44.6881495,53.7822772 45,54.8452081 45,56.2581888 L45,61.7687861 L42.8615752,61.7687861 L42.6706444,60.7668593 L42.6133652,60.7668593 C41.6714352,61.5889572 40.7358837,62 39.8066826,62 C38.9665829,62 38.2887854,61.7302532 37.7732697,61.1907514 Z M41.115894,59.7553191 C41.3874186,59.5921978 42.1821176,59.3475194 42.5,59.0212766 L42.5,57 C41.427147,57.1560291 40.1589427,57.3900694 39.6953642,57.7021277 C39.2317858,58.014186 39,58.404253 39,58.8723404 C39,59.2411366 39.1059592,59.5212756 39.3178808,59.712766 C39.5298024,59.9042563 39.8278126,60 40.2119205,60 C40.543048,60 40.8443695,59.9184405 41.115894,59.7553191 Z M16,80.3476263 L21.7185501,71.2894334 L16.5373134,71.2894334 L16.5373134,69 L24.9616205,69 L24.9616205,70.6523737 L19.2430704,79.7105666 L25,79.7105666 L25,82 L16,82 L16,80.3476263 Z M28.5209205,81.4026975 C27.7608051,81.0044938 27.1506299,80.4264649 26.6903766,79.6685934 C26.2301232,78.910722 26,78.024411 26,77.0096339 C26,75.9820116 26.2301232,75.089278 26.6903766,74.3314066 C27.1506299,73.5735351 27.7608051,72.9955062 28.5209205,72.5973025 C29.2810359,72.1990988 30.1073874,72 31,72 C31.8786655,72 32.7015303,72.1990988 33.4686192,72.5973025 C34.2357082,72.9955062 34.8493701,73.5767463 35.3096234,74.3410405 C35.7698768,75.1053346 36,75.9948568 36,77.0096339 C36,78.024411 35.7698768,78.910722 35.3096234,79.6685934 C34.8493701,80.4264649 34.2357082,81.0044938 33.4686192,81.4026975 C32.7015303,81.8009012 31.8786655,82 31,82 C30.1073874,82 29.2810359,81.8009012 28.5209205,81.4026975 Z M32.4747475,79.2020202 C32.8249176,78.670031 33,77.9393986 33,77.010101 C33,76.0808034 32.8249176,75.346804 32.4747475,74.8080808 C32.1245774,74.2693576 31.6329998,74 31,74 C30.3535321,74 29.8585876,74.2693576 29.5151515,74.8080808 C29.1717155,75.346804 29,76.0808034 29,77.010101 C29,77.9393986 29.1717155,78.670031 29.5151515,79.2020202 C29.8585876,79.7340094 30.3535321,80 31,80 C31.6329998,80 32.1245774,79.7340094 32.4747475,79.2020202 Z M38,72.2366864 L40.0619195,72.2366864 L40.247678,73.9526627 L40.3219814,73.9526627 C40.6439645,73.3214959 41.0371494,72.838266 41.501548,72.5029586 C41.9659466,72.1676512 42.4396261,72 42.9226006,72 C43.3560393,72 43.7151689,72.0657456 44,72.1972387 L43.5727554,74.5246548 C43.5356035,74.5115055 43.4241495,74.48192 43.2383901,74.4358974 C43.0526307,74.3898749 42.8421064,74.3668639 42.6068111,74.3668639 C42.2105243,74.3668639 41.8266272,74.5180787 41.4551084,74.8205128 C41.0835895,75.1229469 40.773995,75.596315 40.5263158,76.2406312 L40.5263158,82 L38,82 L38,72.2366864 Z M45,72 L48,72 L48,82 L45,82 L45,72 Z M45.4188312,70.5787671 C45.139609,70.2979438 45,69.9383584 45,69.5 C45,69.0616416 45.139609,68.7020562 45.4188312,68.4212329 C45.6980533,68.1404096 46.0584394,68 46.5,68 C46.9415606,68 47.3019467,68.1404096 47.5811688,68.4212329 C47.860391,68.7020562 48,69.0616416 48,69.5 C48,69.9383584 47.860391,70.2979438 47.5811688,70.5787671 C47.3019467,70.8595904 46.9415606,71 46.5,71 C46.0584394,71 45.6980533,70.8595904 45.4188312,70.5787671 Z M50.7732697,81.1907514 C50.257754,80.6512497 50,79.9704601 50,79.1483622 C50,78.1335852 50.4264078,77.3468236 51.2792363,76.7880539 C52.1320647,76.2292843 53.5003884,75.847143 55.3842482,75.6416185 C55.3460619,74.6139961 54.8241896,74.1001927 53.8186158,74.1001927 C53.4240235,74.1001927 53.0230728,74.1772632 52.6157518,74.3314066 C52.2084307,74.4855499 51.76293,74.7039164 51.2792363,74.9865125 L50.3436754,73.2524085 C51.6801976,72.4174653 53.0039712,72 54.3150358,72 C55.5242702,72 56.4407288,72.3564512 57.0644391,73.0693642 C57.6881495,73.7822772 58,74.8452081 58,76.2581888 L58,81.7687861 L55.8615752,81.7687861 L55.6706444,80.7668593 L55.6133652,80.7668593 C54.6714352,81.5889572 53.7358837,82 52.8066826,82 C51.9665829,82 51.2887854,81.7302532 50.7732697,81.1907514 Z M54.115894,79.7553191 C54.3874186,79.5921978 55.1821176,79.3262428 55.5,79 L55.5,76.9787234 C54.427147,77.1347526 53.1589427,77.3900694 52.6953642,77.7021277 C52.2317858,78.014186 52,78.404253 52,78.8723404 C52,79.2411366 52.1059592,79.5212756 52.3178808,79.712766 C52.5298024,79.9042563 52.8278126,80 53.2119205,80 C53.543048,80 53.8443695,79.9184405 54.115894,79.7553191 Z" id="Ilya-Zoria" fill="#343439"></path>
            </g>
        </g>
    </g>
</svg>