<?xml version="1.0" encoding="UTF-8"?>
<svg width="98px" height="103px" viewBox="0 0 98 103" version="1.1" xmlns="http://www.w3.org/2000/svg" xmlns:xlink="http://www.w3.org/1999/xlink">
    <!-- Generator: Sketch 46.2 (44496) - http://www.bohemiancoding.com/sketch -->
    <title>logo/hover</title>
    <desc>Created with Sketch.</desc>
    <defs></defs>
    <g id="Symbols" stroke="none" stroke-width="1" fill="none" fill-rule="evenodd">
        <g id="logo/hover">
            <g id="Group-3">
                <rect id="Rectangle-7" fill="#F52B22" x="0" y="0" width="98" height="103"></rect>
                <path d="M16.46,64 L16.46,49.84 L19.9,49.84 L19.9,64 L16.46,64 Z M22.38,64 L22.38,48.88 L25.7,48.88 L25.7,64 L22.38,64 Z M33.62,65.5 C33.419999,66.0200026 33.1966679,66.4833313 32.95,66.89 C32.7033321,67.2966687 32.4100017,67.6433319 32.07,67.93 C31.7299983,68.2166681 31.3300023,68.4333326 30.87,68.58 C30.4099977,68.7266674 29.8666698,68.8 29.24,68.8 C28.9333318,68.8 28.6166683,68.7800002 28.29,68.74 C27.9633317,68.6999998 27.6800012,68.646667 27.44,68.58 L27.8,65.82 C27.9600008,65.8733336 28.1366657,65.9166665 28.33,65.95 C28.5233343,65.9833335 28.6999992,66 28.86,66 C29.3666692,66 29.7333322,65.8833345 29.96,65.65 C30.1866678,65.4166655 30.3799992,65.0866688 30.54,64.66 L30.86,63.84 L26.7,54.04 L30.34,54.04 L32.56,60.44 L32.62,60.44 L34.6,54.04 L38.08,54.04 L33.62,65.5 Z M44.92,59.66 L44.5,59.66 C44.1399982,59.66 43.7766685,59.6766665 43.41,59.71 C43.0433315,59.7433335 42.7166681,59.8066662 42.43,59.9 C42.1433319,59.9933338 41.9066676,60.1299991 41.72,60.31 C41.5333324,60.4900009 41.44,60.7266652 41.44,61.02 C41.44,61.2066676 41.4833329,61.366666 41.57,61.5 C41.6566671,61.633334 41.766666,61.7399996 41.9,61.82 C42.033334,61.9000004 42.1866658,61.9566665 42.36,61.99 C42.5333342,62.0233335 42.6999992,62.04 42.86,62.04 C43.52667,62.04 44.0366649,61.8566685 44.39,61.49 C44.7433351,61.1233315 44.92,60.6266698 44.92,60 L44.92,59.66 Z M38.9,55.4 C39.4866696,54.8399972 40.1699961,54.4200014 40.95,54.14 C41.7300039,53.8599986 42.5266626,53.72 43.34,53.72 C44.1800042,53.72 44.8899971,53.8233323 45.47,54.03 C46.0500029,54.2366677 46.5199982,54.5566645 46.88,54.99 C47.2400018,55.4233355 47.5033325,55.9699967 47.67,56.63 C47.8366675,57.2900033 47.92,58.0733288 47.92,58.98 L47.92,64 L44.92,64 L44.92,62.94 L44.86,62.94 C44.6066654,63.3533354 44.2233359,63.6733322 43.71,63.9 C43.1966641,64.1266678 42.640003,64.24 42.04,64.24 C41.639998,64.24 41.2266688,64.1866672 40.8,64.08 C40.3733312,63.9733328 39.9833351,63.8000012 39.63,63.56 C39.2766649,63.3199988 38.9866678,63.000002 38.76,62.6 C38.5333322,62.199998 38.42,61.7066696 38.42,61.12 C38.42,60.3999964 38.6166647,59.8200022 39.01,59.38 C39.4033353,58.9399978 39.9099969,58.6000012 40.53,58.36 C41.1500031,58.1199988 41.8399962,57.9600004 42.6,57.88 C43.3600038,57.7999996 44.0999964,57.76 44.82,57.76 L44.82,57.6 C44.82,57.1066642 44.6466684,56.7433345 44.3,56.51 C43.9533316,56.2766655 43.5266692,56.16 43.02,56.16 C42.553331,56.16 42.1033355,56.259999 41.67,56.46 C41.2366645,56.660001 40.8666682,56.8999986 40.56,57.18 L38.9,55.4 Z M15.78,84 L15.78,81.04 L22.52,72.74 L15.94,72.74 L15.94,69.84 L26.8,69.84 L26.8,72.58 L19.9,81.04 L26.94,81.04 L26.94,84 L15.78,84 Z M39,78.98 C39,79.7933374 38.8533348,80.5299967 38.56,81.19 C38.2666652,81.8500033 37.8666692,82.4099977 37.36,82.87 C36.8533308,83.3300023 36.26667,83.6866654 35.6,83.94 C34.93333,84.1933346 34.2200038,84.32 33.46,84.32 C32.7133296,84.32 32.0033367,84.1933346 31.33,83.94 C30.6566633,83.6866654 30.0700025,83.3300023 29.57,82.87 C29.0699975,82.4099977 28.6733348,81.8500033 28.38,81.19 C28.0866652,80.5299967 27.94,79.7933374 27.94,78.98 C27.94,78.1666626 28.0866652,77.4333366 28.38,76.78 C28.6733348,76.1266634 29.0699975,75.5733356 29.57,75.12 C30.0700025,74.6666644 30.6566633,74.3200012 31.33,74.08 C32.0033367,73.8399988 32.7133296,73.72 33.46,73.72 C34.2200038,73.72 34.93333,73.8399988 35.6,74.08 C36.26667,74.3200012 36.8533308,74.6666644 37.36,75.12 C37.8666692,75.5733356 38.2666652,76.1266634 38.56,76.78 C38.8533348,77.4333366 39,78.1666626 39,78.98 Z M35.84,78.98 C35.84,78.6599984 35.7866672,78.3466682 35.68,78.04 C35.5733328,77.7333318 35.420001,77.4633345 35.22,77.23 C35.019999,76.9966655 34.7733348,76.8066674 34.48,76.66 C34.1866652,76.5133326 33.8466686,76.44 33.46,76.44 C33.0733314,76.44 32.7333348,76.5133326 32.44,76.66 C32.1466652,76.8066674 31.9033343,76.9966655 31.71,77.23 C31.5166657,77.4633345 31.3700005,77.7333318 31.27,78.04 C31.1699995,78.3466682 31.12,78.6599984 31.12,78.98 C31.12,79.3000016 31.1699995,79.6133318 31.27,79.92 C31.3700005,80.2266682 31.519999,80.5033321 31.72,80.75 C31.920001,80.9966679 32.1666652,81.1933326 32.46,81.34 C32.7533348,81.4866674 33.0933314,81.56 33.48,81.56 C33.8666686,81.56 34.2066652,81.4866674 34.5,81.34 C34.7933348,81.1933326 35.039999,80.9966679 35.24,80.75 C35.440001,80.5033321 35.5899995,80.2266682 35.69,79.92 C35.7900005,79.6133318 35.84,79.3000016 35.84,78.98 Z M47.24,76.72 C47.0933326,76.6799998 46.9500007,76.6533334 46.81,76.64 C46.6699993,76.6266666 46.533334,76.62 46.4,76.62 C45.9599978,76.62 45.5900015,76.6999992 45.29,76.86 C44.9899985,77.0200008 44.7500009,77.2133322 44.57,77.44 C44.3899991,77.6666678 44.2600004,77.913332 44.18,78.18 C44.0999996,78.446668 44.06,78.679999 44.06,78.88 L44.06,84 L40.78,84 L40.78,74.04 L43.94,74.04 L43.94,75.48 L43.98,75.48 C44.2333346,74.9733308 44.593331,74.5600016 45.06,74.24 C45.526669,73.9199984 46.0666636,73.76 46.68,73.76 C46.813334,73.76 46.9433327,73.7666666 47.07,73.78 C47.1966673,73.7933334 47.2999996,73.8133332 47.38,73.84 L47.24,76.72 Z M51.96,70.86 C51.96,71.1133346 51.9100005,71.3499989 51.81,71.57 C51.7099995,71.7900011 51.5766675,71.9799992 51.41,72.14 C51.2433325,72.3000008 51.0433345,72.4266662 50.81,72.52 C50.5766655,72.6133338 50.3333346,72.66 50.08,72.66 C49.546664,72.66 49.1000018,72.4833351 48.74,72.13 C48.3799982,71.7766649 48.2,71.3533358 48.2,70.86 C48.2,70.6199988 48.2466662,70.3900011 48.34,70.17 C48.4333338,69.9499989 48.5666658,69.7600008 48.74,69.6 C48.9133342,69.4399992 49.1133322,69.3100005 49.34,69.21 C49.5666678,69.1099995 49.813332,69.06 50.08,69.06 C50.3333346,69.06 50.5766655,69.1066662 50.81,69.2 C51.0433345,69.2933338 51.2433325,69.4199992 51.41,69.58 C51.5766675,69.7400008 51.7099995,69.9299989 51.81,70.15 C51.9100005,70.3700011 51.96,70.6066654 51.96,70.86 Z M48.44,84 L48.44,74.04 L51.72,74.04 L51.72,84 L48.44,84 Z M59.9,79.66 L59.48,79.66 C59.1199982,79.66 58.7566685,79.6766665 58.39,79.71 C58.0233315,79.7433335 57.6966681,79.8066662 57.41,79.9 C57.1233319,79.9933338 56.8866676,80.1299991 56.7,80.31 C56.5133324,80.4900009 56.42,80.7266652 56.42,81.02 C56.42,81.2066676 56.4633329,81.366666 56.55,81.5 C56.6366671,81.633334 56.746666,81.7399996 56.88,81.82 C57.013334,81.9000004 57.1666658,81.9566665 57.34,81.99 C57.5133342,82.0233335 57.6799992,82.04 57.84,82.04 C58.50667,82.04 59.0166649,81.8566685 59.37,81.49 C59.7233351,81.1233315 59.9,80.6266698 59.9,80 L59.9,79.66 Z M53.88,75.4 C54.4666696,74.8399972 55.1499961,74.4200014 55.93,74.14 C56.7100039,73.8599986 57.5066626,73.72 58.32,73.72 C59.1600042,73.72 59.8699971,73.8233323 60.45,74.03 C61.0300029,74.2366677 61.4999982,74.5566645 61.86,74.99 C62.2200018,75.4233355 62.4833325,75.9699967 62.65,76.63 C62.8166675,77.2900033 62.9,78.0733288 62.9,78.98 L62.9,84 L59.9,84 L59.9,82.94 L59.84,82.94 C59.5866654,83.3533354 59.2033359,83.6733322 58.69,83.9 C58.1766641,84.1266678 57.620003,84.24 57.02,84.24 C56.619998,84.24 56.2066688,84.1866672 55.78,84.08 C55.3533312,83.9733328 54.9633351,83.8000012 54.61,83.56 C54.2566649,83.3199988 53.9666678,83.000002 53.74,82.6 C53.5133322,82.199998 53.4,81.7066696 53.4,81.12 C53.4,80.3999964 53.5966647,79.8200022 53.99,79.38 C54.3833353,78.9399978 54.8899969,78.6000012 55.51,78.36 C56.1300031,78.1199988 56.8199962,77.9600004 57.58,77.88 C58.3400038,77.7999996 59.0799964,77.76 59.8,77.76 L59.8,77.6 C59.8,77.1066642 59.6266684,76.7433345 59.28,76.51 C58.9333316,76.2766655 58.5066692,76.16 58,76.16 C57.533331,76.16 57.0833355,76.259999 56.65,76.46 C56.2166645,76.660001 55.8466682,76.8999986 55.54,77.18 L53.88,75.4 Z" id="Ilya-Zoria" fill="#FFFFFF"></path>
            </g>
        </g>
    </g>
</svg>